<svg width="28" height="22" viewBox="0 0 28 22" fill="none" xmlns="http://www.w3.org/2000/svg">
<path id="Vector" d="M23.3454 2.36343C21.6354 1.56626 19.7839 0.987674 17.8553 0.653379C17.8383 0.652839 17.8215 0.656012 17.806 0.662676C17.7904 0.669341 17.7765 0.679334 17.7653 0.691952C17.5338 1.11625 17.2638 1.66912 17.0838 2.09342C15.0382 1.78484 12.9578 1.78484 10.9122 2.09342C10.7322 1.65626 10.4622 1.11625 10.2179 0.691952C10.205 0.666237 10.1665 0.653379 10.1279 0.653379C8.19928 0.987674 6.36066 1.56626 4.63775 2.36343C4.6249 2.36343 4.61204 2.37628 4.59918 2.38914C1.10194 7.62214 0.13763 12.7137 0.613357 17.7538C0.613357 17.7796 0.626214 17.8053 0.651929 17.8181C2.96628 19.5153 5.19063 20.5439 7.38926 21.2254C7.42783 21.2382 7.4664 21.2254 7.47926 21.1997C7.99356 20.4925 8.45643 19.7468 8.85501 18.9625C8.88073 18.911 8.85501 18.8596 8.80358 18.8467C8.0707 18.5639 7.3764 18.2296 6.69495 17.8439C6.64352 17.8181 6.64352 17.741 6.6821 17.7024C6.82353 17.5996 6.96496 17.4838 7.10639 17.381C7.13211 17.3553 7.17068 17.3553 7.19639 17.3681C11.6194 19.3868 16.3895 19.3868 20.7611 17.3681C20.7868 17.3553 20.8253 17.3553 20.8511 17.381C20.9925 17.4967 21.1339 17.5996 21.2754 17.7153C21.3268 17.7538 21.3268 17.831 21.2625 17.8567C20.5939 18.2553 19.8867 18.5767 19.1539 18.8596C19.1024 18.8724 19.0896 18.9367 19.1024 18.9753C19.5139 19.7596 19.9767 20.5054 20.4782 21.2125C20.5168 21.2254 20.5553 21.2382 20.5939 21.2254C22.8054 20.5439 25.0297 19.5153 27.3441 17.8181C27.3698 17.8053 27.3827 17.7796 27.3827 17.7538C27.9484 11.9294 26.4441 6.87641 23.3968 2.38914C23.384 2.37628 23.3711 2.36343 23.3454 2.36343ZM9.5236 14.6809C8.19928 14.6809 7.09353 13.4594 7.09353 11.9551C7.09353 10.4508 8.17356 9.22933 9.5236 9.22933C10.8865 9.22933 11.9665 10.4636 11.9537 11.9551C11.9537 13.4594 10.8736 14.6809 9.5236 14.6809ZM18.4853 14.6809C17.161 14.6809 16.0552 13.4594 16.0552 11.9551C16.0552 10.4508 17.1352 9.22933 18.4853 9.22933C19.8482 9.22933 20.9282 10.4636 20.9153 11.9551C20.9153 13.4594 19.8482 14.6809 18.4853 14.6809Z" fill="#161128"/>
</svg>
