<svg width="36" height="37" viewBox="0 0 36 37" fill="none" xmlns="http://www.w3.org/2000/svg">
<path d="M27.3454 9.86318C25.6354 9.06602 23.7839 8.48743 21.8553 8.15314C21.8383 8.15259 21.8215 8.15577 21.806 8.16243C21.7904 8.1691 21.7765 8.17909 21.7653 8.19171C21.5338 8.61601 21.2638 9.16888 21.0838 9.59317C19.0382 9.28459 16.9578 9.28459 14.9122 9.59317C14.7322 9.15602 14.4622 8.61601 14.2179 8.19171C14.205 8.16599 14.1665 8.15314 14.1279 8.15314C12.1993 8.48743 10.3607 9.06602 8.63775 9.86318C8.6249 9.86318 8.61204 9.87604 8.59918 9.8889C5.10194 15.1219 4.13763 20.2135 4.61336 25.2536C4.61336 25.2793 4.62621 25.305 4.65193 25.3179C6.96628 27.0151 9.19063 28.0437 11.3893 28.7251C11.4278 28.738 11.4664 28.7251 11.4793 28.6994C11.9936 27.9923 12.4564 27.2465 12.855 26.4622C12.8807 26.4108 12.855 26.3593 12.8036 26.3465C12.0707 26.0636 11.3764 25.7293 10.695 25.3436C10.6435 25.3179 10.6435 25.2407 10.6821 25.2022C10.8235 25.0993 10.965 24.9836 11.1064 24.8807C11.1321 24.855 11.1707 24.855 11.1964 24.8679C15.6194 26.8865 20.3895 26.8865 24.7611 24.8679C24.7868 24.855 24.8253 24.855 24.8511 24.8807C24.9925 24.9965 25.1339 25.0993 25.2754 25.215C25.3268 25.2536 25.3268 25.3307 25.2625 25.3565C24.5939 25.755 23.8867 26.0765 23.1539 26.3593C23.1024 26.3722 23.0896 26.4365 23.1024 26.4751C23.5139 27.2594 23.9767 28.0051 24.4782 28.7123C24.5168 28.7251 24.5553 28.738 24.5939 28.7251C26.8054 28.0437 29.0297 27.0151 31.3441 25.3179C31.3698 25.305 31.3827 25.2793 31.3827 25.2536C31.9484 19.4292 30.4441 14.3762 27.3968 9.8889C27.384 9.87604 27.3711 9.86318 27.3454 9.86318ZM13.5236 22.1807C12.1993 22.1807 11.0935 20.9592 11.0935 19.4549C11.0935 17.9505 12.1736 16.7291 13.5236 16.7291C14.8865 16.7291 15.9665 17.9634 15.9537 19.4549C15.9537 20.9592 14.8736 22.1807 13.5236 22.1807ZM22.4853 22.1807C21.161 22.1807 20.0552 20.9592 20.0552 19.4549C20.0552 17.9505 21.1352 16.7291 22.4853 16.7291C23.8482 16.7291 24.9282 17.9634 24.9153 19.4549C24.9153 20.9592 23.8482 22.1807 22.4853 22.1807Z" fill="#FBFDFB"/>
</svg>
