<svg width="22" height="22" viewBox="0 0 22 22" fill="none" xmlns="http://www.w3.org/2000/svg">
<path id="Vector" d="M4.67782 2.93954C4.67751 3.54597 4.43632 4.12744 4.0073 4.55603C3.57827 4.98463 2.99656 5.22524 2.39013 5.22494C1.78371 5.22463 1.20223 4.98344 0.77364 4.55441C0.345045 4.12539 0.104433 3.54368 0.104737 2.93725C0.10504 2.33082 0.346233 1.74935 0.775257 1.32076C1.20428 0.892164 1.78599 0.651553 2.39242 0.651856C2.99885 0.652159 3.58032 0.893352 4.00891 1.32238C4.43751 1.7514 4.67812 2.33311 4.67782 2.93954ZM4.74641 6.91812H0.173333V21.2319H4.74641V6.91812ZM11.9719 6.91812H7.42166V21.2319H11.9261V13.7206C11.9261 9.53621 17.3795 9.1475 17.3795 13.7206V21.2319H21.8955V12.1657C21.8955 5.11175 13.824 5.3747 11.9261 8.83881L11.9719 6.91812Z" fill="#161128"/>
</svg>
