<svg width="188" height="48" viewBox="0 0 188 48" fill="none" xmlns="http://www.w3.org/2000/svg">
<path d="M177.67 23.4795C177.67 20.6709 179.947 18.394 182.756 18.394C185.564 18.394 187.841 20.6709 187.841 23.4795C187.841 26.2881 185.564 28.5649 182.756 28.5649C179.947 28.5649 177.67 26.2881 177.67 23.4795Z" fill="#161128"/>
<path d="M17.6452 1.46533C18.9822 1.46533 20.2134 1.74482 21.3313 2.29623C22.4493 2.85142 23.333 3.63321 23.9902 4.63784C24.6436 5.63491 24.9722 6.74907 24.9722 7.97652C24.9722 11.2397 23.4917 13.2942 20.5306 14.1402V14.2913C23.9033 15.0693 25.5915 17.2788 25.5915 20.9234C25.5915 22.3132 25.2479 23.5445 24.5643 24.6095C23.8769 25.6784 22.9478 26.5092 21.7694 27.1022C20.5911 27.6876 19.2919 27.9784 17.8718 27.9784H0V1.46533H17.6452ZM8.52044 11.7986H14.3669C14.9297 11.7986 15.398 11.6022 15.7719 11.2095C16.142 10.8091 16.3309 10.3106 16.3309 9.71385V9.32106C16.3309 8.75832 16.1382 8.27867 15.7568 7.88588C15.3715 7.48554 14.9108 7.28159 14.3669 7.28159H8.52044V11.7986ZM8.52044 21.8147H14.9863C15.5491 21.8147 16.0174 21.6183 16.3913 21.2255C16.7614 20.8252 16.9502 20.3266 16.9502 19.7299V19.3522C16.9502 18.7593 16.7614 18.2645 16.3913 17.8717C16.0174 17.4714 15.5491 17.2674 14.9863 17.2674H8.52044V21.8147Z" fill="#161128"/>
<path d="M25.7766 27.9786V0.0454102H33.4511V27.9786H25.7766Z" fill="#161128"/>
<path d="M44.4669 7.16089C47.579 7.16089 50.1056 7.68586 52.0507 8.73203C54.0033 9.77065 54.9815 11.4589 54.9815 13.7929V21.7393C54.9815 22.1736 55.0797 22.5324 55.2836 22.8119C55.4951 23.0952 55.8048 23.2349 56.2203 23.2349H57.6101V27.6764C57.527 27.7293 57.3269 27.8124 57.0058 27.9332C56.681 28.0428 56.224 28.1523 55.6311 28.2656C55.0457 28.3865 54.3659 28.4469 53.5916 28.4469C52.0998 28.4469 50.8723 28.2203 49.9055 27.7671C48.9462 27.3139 48.289 26.6907 47.9264 25.8938C46.9596 26.6718 45.8718 27.2912 44.6633 27.752C43.4547 28.2127 42.0384 28.4469 40.4182 28.4469C35.6443 28.4469 33.2574 26.5434 33.2574 22.7364C33.2574 20.7649 33.7861 19.258 34.8436 18.2193C35.9087 17.1732 37.4458 16.4594 39.4513 16.0741C41.453 15.6813 44.0779 15.4849 47.3221 15.4849V14.4879C47.3221 13.6947 47.0427 13.0905 46.4912 12.675C45.936 12.2633 45.2222 12.0556 44.346 12.0556C43.5491 12.0556 42.858 12.2029 42.2763 12.4937C41.7023 12.777 41.4152 13.2264 41.4152 13.8383V13.9893H33.8616C33.839 13.8609 33.8314 13.6796 33.8314 13.4455C33.8314 11.5231 34.7454 9.99726 36.5809 8.868C38.424 7.73118 41.0527 7.16089 44.4669 7.16089ZM47.3221 19.1107C45.1354 19.1107 43.5189 19.3524 42.4727 19.8358C41.4341 20.3117 40.9167 20.9462 40.9167 21.7393C40.9167 23.0196 41.7929 23.6579 43.5453 23.6579C44.5424 23.6579 45.4186 23.3935 46.174 22.8572C46.9369 22.3134 47.3221 21.6449 47.3221 20.848V19.1107Z" fill="#161128"/>
<path d="M66.6913 7.16089C70.0338 7.16089 72.738 7.87848 74.8039 9.30611C76.8773 10.7375 77.9159 12.9129 77.9159 15.8324H70.4681C70.4681 13.5286 69.2067 12.3729 66.6913 12.3729C64.1722 12.3729 62.9145 13.8232 62.9145 16.7237V18.9294C62.9145 21.7997 64.2288 23.2349 66.8575 23.2349C69.4748 23.2349 70.7854 22.0566 70.7854 19.6998H77.9159C77.9159 22.6533 76.8773 24.8476 74.8039 26.2866C72.738 27.7293 70.0338 28.4469 66.6913 28.4469C63.126 28.4469 60.3236 27.548 58.2917 25.7427C56.2674 23.9412 55.2552 21.2974 55.2552 17.8114C55.2552 14.3179 56.2674 11.6704 58.2917 9.86507C60.3236 8.06354 63.126 7.16089 66.6913 7.16089Z" fill="#161128"/>
<path d="M92.1336 7.62912H101.077L93.5537 15.8323L101.258 27.9785H92.5566L88.2813 20.999L85.6224 23.5823V27.9785H77.948V0H85.6224V15.4093L92.1336 7.62912Z" fill="#161128"/>
<path d="M113.285 7.62906V12.8259H108.965V20.5759C108.965 21.505 109.12 22.1773 109.433 22.6003C109.743 23.0233 110.309 23.2348 111.125 23.2348H113.285V27.7518C112.67 27.9558 111.873 28.1182 110.899 28.2503C109.92 28.3788 109.071 28.4467 108.345 28.4467C106.087 28.4467 104.35 28.0313 103.133 27.208C101.914 26.3846 101.305 24.9834 101.305 23.0082V12.8259H98.4502V7.62906H101.608L103.269 1.46533H108.965V7.62906H113.285Z" fill="#161128"/>
<path d="M123.412 7.16089C127.136 7.16089 129.984 8.0371 131.947 9.78954C133.919 11.5344 134.908 14.2084 134.908 17.8114V19.1107H119.635C119.635 20.5836 119.96 21.6902 120.617 22.4342C121.282 23.182 122.317 23.5522 123.729 23.5522C125.006 23.5522 125.95 23.2802 126.554 22.7364C127.158 22.1925 127.461 21.4749 127.461 20.5761H134.908C134.908 23.0461 133.964 24.9722 132.083 26.3621C130.21 27.752 127.476 28.4469 123.88 28.4469C120.103 28.4469 117.173 27.5669 115.088 25.8031C113.011 24.0432 111.976 21.3767 111.976 17.8114C111.976 14.3179 112.988 11.6704 115.012 9.86507C117.044 8.06354 119.847 7.16089 123.412 7.16089ZM123.729 12.0556C121.312 12.0556 119.96 13.2 119.68 15.4849H127.158C127.158 14.4388 126.856 13.6079 126.252 12.9923C125.648 12.3691 124.806 12.0556 123.729 12.0556Z" fill="#161128"/>
<path d="M145.183 7.16089C148.526 7.16089 151.23 7.87848 153.296 9.30611C155.369 10.7375 156.408 12.9129 156.408 15.8324H148.96C148.96 13.5286 147.698 12.3729 145.183 12.3729C142.664 12.3729 141.406 13.8232 141.406 16.7237V18.9294C141.406 21.7997 142.721 23.2349 145.349 23.2349C147.967 23.2349 149.277 22.0566 149.277 19.6998H156.408C156.408 22.6533 155.369 24.8476 153.296 26.2866C151.23 27.7293 148.526 28.4469 145.183 28.4469C141.618 28.4469 138.815 27.548 136.784 25.7427C134.759 23.9412 133.747 21.2974 133.747 17.8114C133.747 14.3179 134.759 11.6704 136.784 9.86507C138.815 8.06354 141.618 7.16089 145.183 7.16089Z" fill="#161128"/>
<path d="M164.114 9.74421C164.93 8.92843 165.889 8.29393 167 7.84071C168.106 7.3875 169.266 7.16089 170.474 7.16089C172.831 7.16089 174.599 7.82183 175.777 9.13993C176.963 10.4505 177.56 12.3389 177.56 14.8051V27.9786H169.885V15.7267C169.885 14.8504 169.659 14.1517 169.205 13.6268C168.76 13.0942 168.125 12.8261 167.302 12.8261C166.354 12.8261 165.583 13.1396 164.99 13.7627C164.405 14.3783 164.114 15.1337 164.114 16.0288V27.9786H156.44V0.0454102H164.114V9.74421Z" fill="#161128"/>
<path d="M44.7039 43.3366H44.9569C44.9569 43.3366 45.006 43.3366 45.006 43.2837C45.1571 43.2346 45.21 43.2346 45.2591 43.2346C45.3611 43.2346 45.5121 43.1817 45.6141 43.0306C45.6632 43.0306 45.7161 43.0306 45.7652 43.0306C45.7652 43.0306 45.8143 43.0306 45.8671 43.0306C45.9691 43.0306 45.9691 43.0306 46.0673 43.0306C46.0673 43.0306 46.0673 43.0306 46.1202 43.0306C46.1693 43.0306 46.2713 43.0306 46.3732 43.0306H46.4223H46.4752L46.5734 42.7776C46.5734 42.7776 46.6263 42.7776 46.6754 42.7776C46.7774 42.7776 46.8265 42.8305 46.8793 42.8305C46.9284 42.8305 46.9813 42.8305 46.9813 42.7776C47.0795 42.7776 47.1324 42.7285 47.1815 42.6756C47.2343 42.6756 47.2343 42.6756 47.2834 42.6756C47.5856 42.5774 47.8386 42.4755 48.1446 42.3735C48.1937 42.3244 48.2465 42.3244 48.2956 42.2715C48.3447 42.2224 48.3976 42.2224 48.3976 42.2224C48.4467 42.2224 48.4996 42.2224 48.4996 42.2224C48.5487 42.1695 48.6015 42.1204 48.6506 42.1204C48.8017 42.0713 49.0057 42.0185 49.1076 41.9694C49.2058 41.9165 49.2058 41.8674 49.3078 41.8674C49.3607 41.8183 49.4098 41.8183 49.4098 41.8183C49.5609 41.8183 49.7648 41.7163 49.9159 41.6144C49.965 41.6144 50.0178 41.5653 50.0178 41.5653C50.0669 41.5653 50.0669 41.5653 50.1198 41.5124L50.422 41.1574C50.422 41.1574 50.4711 41.2102 50.5239 41.2102C50.6259 41.2102 50.6259 41.2102 50.7241 41.2102C50.777 41.2102 50.777 41.2102 50.8261 41.2102C50.928 41.1574 51.0791 41.0592 51.2302 41.0063C51.2831 40.9572 51.385 40.9043 51.4832 40.8552C51.5361 40.8061 51.5852 40.8061 51.6872 40.7041C51.7363 40.7041 51.7363 40.6513 51.7892 40.6513V40.6022H51.8383C52.0913 40.5002 52.2952 40.3982 52.4463 40.1981H52.4954C52.6503 40.047 52.7485 39.9941 52.9033 39.8921L53.0015 39.6391L53.0544 39.7411H53.1035C53.1035 39.7411 53.1564 39.7411 53.1035 39.692C53.1564 39.692 53.2546 39.6391 53.2546 39.6391C53.3565 39.59 53.4094 39.59 53.4585 39.5371C53.4585 39.488 53.4585 39.488 53.4585 39.4389H53.6096L53.6624 39.235C53.8135 39.235 54.0137 39.235 54.1157 39.031V38.9819L54.0137 38.9328L53.5605 39.1859C53.4585 39.2841 53.4585 39.3369 53.3565 39.3369C53.2055 39.386 53.0544 39.386 53.0544 39.488C52.9524 39.59 52.8504 39.6391 52.7485 39.692C52.7485 39.7411 52.6994 39.7411 52.6503 39.7411L52.5974 39.59H52.4463C52.0913 39.843 51.7892 39.9941 51.4341 40.1981L51.385 40.3L51.0791 40.3982H50.928C50.8261 40.5531 50.6259 40.6022 50.573 40.6513L50.218 40.8061L50.0178 40.9043C49.8139 40.9572 49.5609 41.0063 49.3607 41.1574C49.3078 41.1574 49.2058 41.2102 49.2058 41.2102C49.0548 41.2593 48.9037 41.3613 48.7526 41.4104C48.7526 41.4104 48.6997 41.4104 48.6506 41.4104C48.6015 41.4104 48.6015 41.4104 48.5487 41.4104C48.4467 41.4633 48.3447 41.5124 48.1937 41.5653C48.1446 41.6144 48.0426 41.6144 47.9406 41.6634C47.8915 41.7163 47.7895 41.7654 47.7404 41.8183C47.5856 41.8674 47.3854 41.9694 47.1815 42.0185C47.1324 42.0185 46.9813 42.0185 46.8793 42.0713C46.7283 42.1204 46.5243 42.1695 46.3732 42.2224C46.3204 42.2224 46.2222 42.2224 46.1693 42.2224C46.0673 42.2224 45.9691 42.2224 45.9162 42.2715C45.7161 42.3735 45.5121 42.3735 45.4102 42.3735C45.3611 42.3735 45.2591 42.3735 45.21 42.3735H45.1571C45.0551 42.3735 44.9569 42.3735 44.9041 42.3244C44.855 42.3244 44.8021 42.3244 44.753 42.2715V42.1695L44.855 42.0713L45.1571 41.4104L45.2591 41.3613L45.5121 40.8552L45.7161 40.7532V40.6022C45.7652 40.6022 45.8143 40.5531 45.8671 40.5002C45.9162 40.3982 45.9691 40.3 46.0182 40.1981C46.1693 40.0961 46.1693 39.9941 46.1693 39.8921C46.2222 39.843 46.2222 39.7902 46.3204 39.7902L46.5243 39.692C46.5734 39.6391 46.6263 39.59 46.6754 39.5371C46.7774 39.386 46.8793 39.3369 46.9284 39.235C47.0795 39.133 47.2343 38.9328 47.3854 38.778C47.3854 38.7289 47.3854 38.7289 47.4345 38.6798C47.4874 38.6269 47.5856 38.5778 47.5856 38.5778C47.5856 38.5778 47.6385 38.5249 47.7404 38.4267C47.7895 38.3739 47.8386 38.3248 47.9935 38.3248V38.2719C48.0426 38.2228 48.0917 38.1737 48.1937 38.1208C48.3447 37.9697 48.3976 37.8678 48.5487 37.7658C48.6997 37.6147 48.8017 37.5128 48.9037 37.3126C48.9528 37.2106 49.0057 37.1615 49.1076 37.1615L49.2058 36.9085C49.2587 36.9085 49.3078 36.9085 49.3607 36.8556C49.4098 36.8556 49.5609 36.8556 49.6137 36.7536V36.5534C49.6628 36.5534 49.7119 36.5006 49.7648 36.5006C49.8139 36.4024 49.8668 36.3495 50.0178 36.3495C50.1689 36.3004 50.218 36.1984 50.2709 36.0965C50.2709 36.0965 50.2709 36.0965 50.2709 36.0474H50.422L50.4711 35.9945C50.5239 35.9945 50.5239 35.9945 50.5239 35.9454C50.573 35.9454 50.573 35.9454 50.573 35.8963L50.6259 35.8434C50.675 35.7943 50.777 35.7414 50.8261 35.7414C50.9771 35.6923 51.132 35.5413 51.2831 35.3373C51.2302 35.3373 51.2831 35.2882 51.3322 35.2882L51.4341 35.2353L51.5361 34.9332L51.4832 34.3251C51.4341 34.276 51.2831 34.276 51.2302 34.276C50.928 34.276 50.7241 34.378 50.573 34.6311C50.2709 34.7293 50.1198 34.8841 50.0178 35.1372V35.3373L49.6137 35.6923L49.5609 35.8434L49.1076 35.9945C49.0548 36.1493 49.0057 36.1984 48.8546 36.2475C48.8017 36.2475 48.8546 36.3004 48.8017 36.3495C48.6997 36.4515 48.6015 36.5534 48.4996 36.6025C48.3976 36.7536 48.1937 36.8065 48.1446 36.9576C48.0917 37.0067 48.0426 37.0595 47.9406 37.1615C47.8915 37.1615 47.7895 37.2106 47.7895 37.3126C47.5856 37.5128 47.4874 37.6147 47.2834 37.7658C47.1324 37.8678 46.9813 38.0717 46.7774 38.3248C46.7283 38.3739 46.6754 38.4267 46.5734 38.5249C46.4223 38.6269 46.3732 38.778 46.2222 38.9819C46.1693 39.031 46.0182 39.133 45.9691 39.1859C45.9162 39.235 45.8671 39.2841 45.8671 39.3369C45.7161 39.488 45.5612 39.59 45.463 39.7902C45.3611 39.843 45.3082 39.945 45.21 40.047C45.1571 40.1981 45.0551 40.3 44.9041 40.4511C44.9041 40.5531 44.753 40.6022 44.753 40.7041C44.6019 40.8061 44.4999 41.0063 44.398 41.1574C44.3489 41.2102 44.3489 41.2102 44.3489 41.2102C44.1449 41.5124 43.9448 41.8183 43.9448 42.1204L43.7899 42.2224C43.7408 42.5246 43.7899 42.7285 43.8919 42.9287C43.9448 42.9815 43.9448 43.0306 43.9448 43.0835C43.9448 43.1326 43.9939 43.1817 44.043 43.2346C44.1449 43.2346 44.1978 43.2346 44.2469 43.2346C44.296 43.2346 44.3489 43.2346 44.3489 43.2346C44.4508 43.2346 44.4999 43.2837 44.549 43.2837C44.6019 43.3366 44.651 43.3366 44.7039 43.3366ZM55.2827 31.3377L56.0418 31.3906C56.1929 31.1375 56.1929 30.9336 56.0909 30.6805C55.989 30.5786 55.8379 30.4275 55.5848 30.4275C55.5848 30.4275 55.5357 30.4275 55.4829 30.4275L55.0787 30.6314L54.9768 30.8845L55.2827 31.3377Z" fill="#161128"/>
<path d="M52.9003 43.3857L53.1533 43.5368C53.2062 43.4877 53.2062 43.4877 53.2062 43.4348C53.2553 43.3857 53.3082 43.3857 53.4064 43.3857C53.4593 43.3366 53.4593 43.2347 53.5612 43.2347L53.6103 43.1818C53.8143 43.0836 53.9653 42.9816 54.1655 42.8796C54.2184 42.8305 54.2675 42.7286 54.3695 42.6757H54.4186L54.5205 42.5246L54.9247 42.3245C54.9247 42.1205 55.0266 41.9694 55.2797 41.9166C55.3325 41.8675 55.4307 41.8184 55.5856 41.7655C55.6347 41.7164 55.6347 41.6635 55.6838 41.6635C55.7367 41.6144 55.7367 41.5653 55.7858 41.5653C55.9368 41.4633 55.9897 41.4105 56.0388 41.3123C56.0388 41.2594 56.0917 41.2594 56.0388 41.2103H56.1899C56.1899 41.0592 56.3938 40.9573 56.5978 40.9044L57.0019 40.6022C57.0019 40.4512 57.1039 40.3492 57.1039 40.3001C57.2021 40.2472 57.2021 40.1981 57.2549 40.1981H57.3569C57.5571 40.1452 57.7081 39.9451 57.863 39.7411C58.0141 39.7411 58.0141 39.6392 58.1651 39.5901L58.2671 39.5372C58.3691 39.439 58.4182 39.3861 58.4182 39.337C58.5202 39.2841 58.6221 39.235 58.6221 39.084L58.8752 39.0311C58.9243 38.982 58.9243 38.9329 59.0262 38.88C59.1282 38.8309 59.2793 38.6799 59.3813 38.525C59.4304 38.4759 59.4304 38.4759 59.4304 38.4759C59.6343 38.4268 59.6834 38.3248 59.8345 38.2229C59.8345 38.2229 59.8345 38.2229 59.8345 38.1738C59.8345 38.1209 59.8874 38.1209 59.9365 38.1209C60.1404 38.0189 60.2424 37.9207 60.3406 37.9207C60.4425 37.8678 60.4954 37.8187 60.5445 37.7659C60.6465 37.7168 60.6956 37.6148 60.7485 37.5657C60.9486 37.4637 61.1526 37.4146 61.2546 37.2598C61.3528 37.2107 61.4547 37.1616 61.5076 37.1087C61.5567 37.0596 61.6058 37.0596 61.6587 37.0067C61.6587 37.1087 61.6587 37.1616 61.6587 37.2107C61.6587 37.3618 61.6587 37.4637 61.6587 37.5128C61.6587 37.6148 61.6587 37.7659 61.6058 37.9207C61.6058 37.9207 61.5567 37.9698 61.5567 38.0718C61.6058 38.272 61.6587 38.3739 61.4547 38.525C61.4547 38.627 61.5076 38.6799 61.5076 38.729C61.5076 38.8309 61.4547 39.0311 61.4547 39.1331C61.4547 39.235 61.4547 39.2841 61.4547 39.2841C61.4547 39.439 61.4547 39.5901 61.3528 39.692C61.4547 39.8431 61.3528 39.9942 61.3037 40.1452C61.4547 40.3001 61.3037 40.5531 61.2017 40.7042L61.2546 40.8553C61.2546 40.9044 61.2546 40.9044 61.2546 40.9573C61.2017 41.0064 61.2017 41.0064 61.2546 41.0592C61.2546 41.0592 61.2546 41.0592 61.2546 41.1083C61.1526 41.2103 61.2017 41.4105 61.2546 41.5653C61.2546 41.5653 61.2546 41.6635 61.2546 41.7164C61.2546 41.8184 61.2546 41.9694 61.4056 42.0185C61.4547 42.1205 61.4547 42.1696 61.5076 42.2716C61.5567 42.3245 61.6587 42.4227 61.6587 42.4755C61.7078 42.5775 61.7606 42.6266 61.8097 42.6757C61.9608 42.6757 62.0137 42.8305 62.0137 42.9287H62.1119L62.3649 43.1327C62.4669 43.1327 62.5198 43.1327 62.5689 43.1327C62.5689 43.1327 62.618 43.1818 62.72 43.1818C62.7728 43.2347 62.9239 43.2347 63.0259 43.2347C63.075 43.2347 63.226 43.2347 63.3771 43.2347H63.4791C63.532 43.2347 63.532 43.2347 63.5811 43.2347C63.6302 43.2347 63.6302 43.2347 63.6302 43.2347H63.683C63.7321 43.2347 63.7321 43.2347 63.785 43.2347C63.8341 43.2347 63.8341 43.2347 63.8341 43.2347C63.9361 43.2347 63.9361 43.2347 63.9852 43.2347C64.14 43.2347 64.2911 43.1818 64.4913 43.1818C64.5932 43.1818 64.7443 43.1327 64.7972 43.0836C64.8463 43.0307 64.9483 43.0307 65.0993 43.0307C65.1522 43.0307 65.2013 43.0307 65.2504 43.0307L65.3524 42.9816V42.9287C65.4053 42.9287 65.4053 42.9287 65.4543 42.9287C65.4543 42.9287 65.5034 42.8796 65.5563 42.8796H65.6054C65.6583 42.8796 65.6583 42.9287 65.7074 42.9287H65.7565C65.8094 42.8796 65.9113 42.8305 65.9604 42.7777C66.0095 42.7286 66.0624 42.6757 66.1644 42.6757C66.2135 42.6757 66.2135 42.6266 66.2135 42.6266C66.2626 42.5775 66.3155 42.5246 66.3646 42.4755C66.4174 42.4755 66.4174 42.4755 66.4665 42.4755L66.5685 42.3736H66.6705L67.1766 42.0714V41.9166L67.3276 42.0185C67.4787 42.0185 67.4787 41.9694 67.5807 41.9166C67.5807 41.8675 67.6298 41.8675 67.6298 41.8184L67.7318 41.8675L67.8337 41.6635C67.8337 41.6635 67.9357 41.6635 67.9848 41.6144C68.0339 41.5653 68.1359 41.5653 68.1887 41.5653C68.3398 41.5124 68.4418 41.4105 68.4909 41.4105C68.54 41.3614 68.54 41.3123 68.5929 41.2594C68.642 41.2103 68.7439 41.1574 68.793 41.1083C68.793 41.1083 68.793 41.1083 68.8459 41.1083C68.9479 41.1083 68.9479 41.1083 68.9479 41.1083L68.997 41.0592H69.099L69.0461 40.8553H69.2009L69.2991 40.7533C69.5031 40.7533 69.9601 40.5003 70.0092 40.3983L69.8581 40.1981L69.8052 40.2472L69.6541 40.3492C69.6541 40.3983 69.6541 40.3983 69.605 40.3983C69.352 40.4512 69.099 40.5003 68.997 40.7042L69.0461 40.7533L68.8459 40.6513C68.8459 40.6513 68.8459 40.6513 68.793 40.7042C68.793 40.7042 68.7439 40.7042 68.793 40.7533C68.7439 40.8553 68.642 40.8553 68.5929 40.9044C68.54 40.9044 68.4909 40.9573 68.4418 40.9573C68.2869 41.0064 68.1887 41.0064 68.1359 41.0592C68.0339 41.0592 68.0339 41.1083 67.9357 41.1083L67.8337 41.1574C67.8337 41.2103 67.6827 41.2103 67.6298 41.2594C67.5278 41.3614 67.4296 41.4105 67.2748 41.4633C67.2748 41.5124 67.2748 41.5124 67.2257 41.5124C67.1766 41.5124 67.1766 41.5124 67.1237 41.5124V41.4633L66.8706 41.6635L65.6054 42.0185L65.4543 42.0714C65.3524 42.0714 65.3033 42.0714 65.2504 42.0714C64.8992 42.0714 64.5441 42.1205 64.2911 42.2716C64.2382 42.2716 64.1891 42.2716 64.14 42.2716C64.0872 42.2716 63.9852 42.2716 63.9852 42.2716C63.9361 42.2716 63.8832 42.2716 63.8341 42.2716C63.785 42.2716 63.6302 42.2716 63.5811 42.3245L62.871 42.1205C62.871 42.1205 62.871 42.1205 62.8219 42.1205L62.7728 42.0714C62.72 41.9694 62.5689 41.9166 62.5198 41.8184C62.4178 41.7655 62.3649 41.6635 62.3158 41.5653C62.3158 41.5124 62.2667 41.4105 62.2139 41.3614C62.1648 41.3123 62.1648 41.2594 62.1119 41.2103C62.2139 41.1083 62.2139 41.0064 62.1648 40.8553C62.2139 40.8062 62.1648 40.7042 62.2139 40.6513C62.2139 40.5531 62.1648 40.5003 62.2139 40.3983C62.1648 40.3492 62.1648 40.3001 62.1648 40.3001L62.3158 39.9942C62.3158 39.9451 62.3158 39.9451 62.3158 39.8922C62.3158 39.7902 62.3158 39.7411 62.3158 39.692C62.3649 39.5372 62.4178 39.3861 62.3649 39.337C62.4178 39.235 62.4178 39.1859 62.4178 39.084C62.5198 39.0311 62.4669 39.0311 62.4669 38.982L62.4178 38.6799L62.5689 38.4759C62.5689 38.3248 62.5689 38.1209 62.5689 37.9207C62.5689 37.9207 62.5689 37.8187 62.618 37.7659C62.618 37.7168 62.6709 37.6677 62.618 37.5657C62.618 37.5657 62.6709 37.5128 62.6709 37.4637C62.6709 37.4146 62.618 37.3618 62.72 37.2598C62.72 37.2107 62.72 37.2107 62.72 37.1616V37.1087C62.72 37.0067 62.6709 36.8557 62.618 36.7537L62.5689 36.6026V36.3496L62.2139 36.1985L62.1119 36.3005L62.0137 36.1985L61.8588 36.2476L61.7606 36.0965L61.4056 36.2476L61.3528 36.3496L61.2546 36.3005C61.2017 36.4024 61.0997 36.4515 61.0506 36.5006C60.7976 36.6026 60.6465 36.7537 60.5445 37.0067L60.4425 36.9085L60.2915 37.0596L60.0875 37.0067L59.8874 37.3127L59.8345 37.3618L59.6343 37.5657L59.5814 37.4637C59.4304 37.5657 59.4304 37.6677 59.2793 37.7659C59.1773 37.8678 59.0753 37.9207 58.9243 38.1209C58.8752 38.1209 58.8223 38.1209 58.7732 38.2229L58.7241 38.272C58.6712 38.3248 58.6221 38.3248 58.6221 38.3248C58.5202 38.3739 58.4711 38.4759 58.4182 38.4759C58.3691 38.4759 58.3162 38.525 58.2671 38.5779C58.2671 38.627 58.2671 38.627 58.218 38.627L58.1651 38.6799L58.116 38.5779C58.0141 38.6799 58.0141 38.6799 58.0141 38.729C57.965 38.8309 57.9121 38.8309 57.8101 38.88C57.659 39.0311 57.5571 39.1331 57.4551 39.235C57.406 39.2841 57.304 39.2841 57.2549 39.337L57.1039 39.3861C57.1039 39.4881 57.051 39.5901 56.8999 39.5901C56.8999 39.5901 56.8999 39.6392 56.8508 39.6392L56.5449 39.8922L56.3447 40.0471C56.3447 40.0961 56.2919 40.0961 56.2428 40.1452C56.1899 40.1452 56.1899 40.1452 56.1408 40.1981C56.0917 40.1981 56.0917 40.1981 56.0388 40.1981C56.0917 40.2472 56.0388 40.2472 55.9897 40.3001C55.9897 40.3492 55.9897 40.3983 55.8386 40.4512C55.7858 40.5003 55.6838 40.5003 55.6347 40.5003C55.5856 40.5003 55.5327 40.5531 55.4836 40.5531L55.2797 40.8062L55.0795 40.8553L54.9775 41.0064L54.8756 40.8553C54.8756 40.8553 54.9247 40.8553 54.9775 40.8062C55.0266 40.7533 55.0266 40.7042 55.0266 40.6513C55.0795 40.6513 55.1777 40.5003 55.2797 40.5003C55.2797 40.5003 55.3325 40.5003 55.3816 40.4512C55.4307 40.4512 55.4307 40.4512 55.4307 40.4512C55.4836 40.1981 55.6347 40.0471 55.7858 39.8922C55.8386 39.7411 55.9897 39.7411 55.9897 39.5901L56.0917 39.692L56.1408 39.6392C56.1408 39.6392 56.1408 39.6392 56.1408 39.5901C56.1899 39.5901 56.1899 39.5372 56.1899 39.4881V39.439C56.1899 39.3861 56.2428 39.3861 56.2919 39.3861C56.3447 39.337 56.3938 39.2841 56.4958 39.235C56.5449 39.1859 56.5978 39.084 56.6469 39.0311C56.696 38.982 56.7979 38.9329 56.8999 38.8309C56.8999 38.8309 57.051 38.778 57.1039 38.6799C57.153 38.627 57.2549 38.4759 57.304 38.4268C57.3569 38.3739 57.406 38.3248 57.4551 38.3248C57.5571 38.1738 57.61 38.0718 57.761 38.0189C57.761 38.0189 57.8101 37.9698 57.8101 37.9207C57.863 37.8187 58.0141 37.7659 58.1651 37.6677L58.4711 37.2107L58.6221 37.3127H58.6712C58.7241 37.2598 58.7241 37.2598 58.7732 37.2107C58.8223 37.2107 58.8223 37.2107 58.8752 37.1616C58.9243 37.0596 58.9772 37.0067 59.0753 37.0067C59.0753 37.0067 59.0753 37.0067 59.0753 36.9576C59.1282 36.9085 59.2302 36.8557 59.2793 36.8066C59.3284 36.7046 59.3813 36.6555 59.4304 36.6026C59.5323 36.5535 59.5814 36.5006 59.6343 36.5006C59.5814 36.4515 59.6343 36.4515 59.6343 36.4024C59.6343 36.4024 59.6343 36.4024 59.6343 36.3496C59.6343 36.3496 59.6343 36.3005 59.6834 36.3005C59.7363 36.1985 59.7854 36.0965 59.8345 35.9946C59.8345 35.9455 59.8345 35.8964 59.8345 35.8435H59.7363L59.6343 35.6433L59.4304 35.7415H59.2793L58.7732 36.3005C58.6712 36.3005 58.4711 36.4024 58.4182 36.5006C58.3691 36.5535 58.3691 36.5535 58.3691 36.5535C58.2671 36.6026 58.2671 36.6555 58.218 36.6555C58.116 36.7537 58.0141 36.8557 57.965 36.9085C57.863 36.9576 57.863 37.0067 57.761 37.0067C57.659 37.1087 57.61 37.2107 57.5571 37.2598C57.4551 37.4146 57.3569 37.4637 57.153 37.5657C57.1039 37.5657 57.1039 37.6677 57.0019 37.7659C57.0019 37.7659 56.949 37.7659 56.949 37.8187C56.8999 37.9207 56.7979 37.9207 56.696 38.0189C56.696 38.0718 56.6469 38.1209 56.6469 38.1209C56.5978 38.1738 56.5449 38.272 56.4429 38.3248L56.3447 38.3739C56.2428 38.3739 56.1899 38.4759 56.1899 38.525C56.1899 38.627 56.1408 38.6799 55.9897 38.6799L55.8877 38.8309L55.7858 39.0311L55.7367 39.084C55.6838 39.084 55.6838 39.1331 55.6838 39.1859C55.5327 39.2841 55.4307 39.439 55.2797 39.5901C55.2797 39.7411 55.1286 39.7411 55.0795 39.8922C55.0266 39.9451 54.9775 39.9942 54.9247 39.9942C54.7736 40.1452 54.7245 40.2472 54.6716 40.3001V40.3492C54.4186 40.4512 54.3695 40.6513 54.2675 40.8062C53.9653 41.0592 53.7614 41.2103 53.6103 41.5653C53.4593 41.5653 53.4593 41.6635 53.4064 41.7655C53.4064 41.8675 53.3082 41.9694 53.3082 41.9694L53.0551 42.0714L53.0023 42.2225H52.9003L52.8512 42.3736L52.5981 42.4755L52.3942 42.9287C52.3942 42.9287 52.4471 42.9816 52.3942 43.0307C52.3942 43.0836 52.3451 43.1327 52.4471 43.1818C52.4471 43.2347 52.4471 43.2347 52.3942 43.2838C52.4471 43.3857 52.4471 43.3857 52.5491 43.3857L52.8512 43.3366L52.9003 43.3857Z" fill="#161128"/>
<path d="M99.5676 19.0895C99.4656 18.9876 99.2654 18.9876 99.1106 18.9385C99.0615 18.9876 98.9595 18.9876 98.8575 19.0404C98.7593 19.0895 98.7593 19.1424 98.8084 19.1915C98.6574 19.2406 98.5063 19.2406 98.5063 19.4446C98.4043 19.5465 98.3023 19.6976 98.2004 19.6976C98.1513 19.6976 98.0984 19.7467 98.0493 19.7467C98.0002 19.7996 97.8982 19.9016 97.7962 19.9507C97.7962 20.0526 97.7471 20.1017 97.6943 20.1546C97.6943 20.1546 97.6943 20.2037 97.6452 20.2528C97.5923 20.2528 97.4412 20.3548 97.2902 20.4567C97.0862 20.8118 96.6821 21.0157 96.3271 21.367C96.278 21.5218 96.1269 21.722 95.8739 21.873C95.7719 21.975 95.5679 22.077 95.5188 22.2809C95.3149 22.432 95.1638 22.6322 94.9636 22.787C94.9636 22.8361 94.9108 22.8852 94.9108 22.8852C94.9108 22.9381 94.9108 22.9872 94.8088 22.9872C94.7597 22.9872 94.7597 22.9872 94.7597 22.9872C94.6086 23.0892 94.4538 23.1911 94.3556 23.3422C94.3556 23.3422 94.2536 23.4442 94.1516 23.4933C94.0497 23.5953 94.0006 23.7463 93.8495 23.7992C93.7966 23.8483 93.7475 23.8974 93.7475 23.8974C93.6946 24.1014 93.5964 24.1505 93.4945 24.2524C93.3925 24.2524 93.2414 24.3544 93.1886 24.4564C93.0904 24.6565 92.8864 24.7094 92.7353 24.9096C92.6825 25.0116 92.5314 25.1135 92.4823 25.1626C92.3803 25.2155 92.3803 25.3175 92.2783 25.3666C92.1764 25.4686 92.1273 25.5176 92.0253 25.6196C92.0253 25.7216 91.9233 25.7216 91.8742 25.8236C91.7723 25.9218 91.7232 25.9746 91.6703 26.0766C91.4172 26.2768 91.2662 26.4807 91.066 26.6318C90.964 26.7829 90.8621 26.8358 90.813 26.9868C90.6581 27.0888 90.507 27.2399 90.3069 27.3909C90.2049 27.4929 90.152 27.644 90.0538 27.746C89.9518 27.746 89.899 27.897 89.8008 27.897C89.6459 28.101 89.5477 28.354 89.3929 28.4031C89.2947 28.456 89.2947 28.456 89.2418 28.456C89.0907 28.6562 88.9888 28.8072 88.8377 29.0112C88.6866 29.2151 88.5355 29.3662 88.2825 29.5664C88.2825 29.6683 88.1277 29.7212 88.1805 29.7703C88.0786 29.8723 87.9766 29.9214 87.9275 30.0234C87.6744 30.1744 87.5196 30.4804 87.2665 30.6805C87.1683 30.7825 87.1683 30.8845 87.0664 31.0355C87.0135 31.0846 86.8624 31.1866 86.7605 31.2395C86.6623 31.3377 86.6094 31.4397 86.5074 31.5416C86.5074 31.5416 86.5074 31.5907 86.4583 31.5907C86.3072 31.7456 86.3072 31.8438 86.1562 31.9458C85.9522 32.0968 85.8011 32.4027 85.5972 32.5538C85.397 32.7578 85.2951 32.9579 85.0911 33.109C84.9891 33.211 84.8909 33.2639 84.789 33.362C84.687 33.464 84.483 33.566 84.332 33.6151C84.0789 33.921 83.7768 34.0721 83.5237 34.276C83.5237 34.276 83.4218 34.276 83.3727 34.276C83.3198 34.4762 83.1196 34.4762 83.0177 34.6311C82.8666 34.6801 82.8137 34.6801 82.6626 34.7292C82.5607 34.7292 82.4587 34.7292 82.3076 34.8312C82.3076 34.9823 82.1565 35.0352 82.1565 35.0843C82.0546 35.0352 82.0055 35.0352 81.9526 35.0352C81.9526 35.0843 81.8015 35.1862 81.7524 35.1862C81.6996 35.1862 81.5976 35.1862 81.5485 35.1862C81.5485 35.2353 81.4994 35.2882 81.4465 35.3902C81.3974 35.2882 81.3974 35.2353 81.3974 35.1862C81.2954 35.2882 81.2954 35.3373 81.2463 35.3902C81.1444 35.3902 81.0424 35.4393 80.9404 35.4884C80.8384 35.5904 80.7893 35.6432 80.7402 35.6432C80.7893 35.7414 80.7893 35.8963 80.7893 35.9454C80.7893 36.0473 80.7893 36.0964 80.8384 36.1493C80.9933 36.3004 81.0424 36.5006 81.3445 36.5006C81.3445 36.5006 81.3445 36.4024 81.3974 36.4515C81.5976 36.4515 81.7524 36.3004 81.8506 36.1984C82.0055 36.0964 82.0546 36.0964 82.1565 36.0473C82.3076 35.9945 82.3076 35.8434 82.5116 35.8434C82.5116 35.7943 82.5116 35.7414 82.5116 35.7414C82.5116 35.6923 82.5116 35.6923 82.6135 35.6432C82.6135 35.7414 82.6135 35.8434 82.6135 35.9454C82.5116 36.0473 82.4587 36.0964 82.3076 36.1984C82.0055 36.4515 81.8015 36.7536 81.5976 37.0067C81.5976 37.0595 81.4994 37.1615 81.3974 37.2106C81.3974 37.2597 81.3974 37.4145 81.2463 37.4145C81.2463 37.4145 81.2463 37.4145 81.1935 37.4636C81.2463 37.5127 81.1935 37.5656 81.1935 37.6147C80.9933 37.8187 80.7893 37.9206 80.6874 38.1737C80.4872 38.3739 80.3324 38.6269 80.1813 38.8308C80.1813 38.8308 80.1813 38.8308 80.1322 38.8799C79.9282 38.9819 79.8791 39.0839 79.7772 39.235C79.7772 39.235 79.7772 39.2841 79.7772 39.386C79.5241 39.488 79.373 39.6391 79.1691 39.7411C79.0671 39.945 79.018 40.0961 78.867 40.198C78.8141 40.3982 78.6139 40.5531 78.4628 40.6513C78.3609 40.8061 78.308 40.9572 78.0549 41.0592C78.0058 41.1082 77.9567 41.2102 77.8548 41.3122C77.8019 41.3122 77.8019 41.3122 77.8019 41.2593C77.7528 41.3613 77.6017 41.4104 77.6017 41.4633C77.4998 41.4633 77.3978 41.5124 77.3978 41.5124C77.1976 41.5652 77.1447 41.6143 77.0428 41.7163C77.0428 41.7654 77.0428 41.8183 77.0428 41.9165C76.9446 41.8674 76.8917 41.8674 76.8426 41.8183C76.6915 42.0713 76.6915 42.2715 76.4876 42.4226C76.3365 42.4754 76.2836 42.5774 76.1854 42.6756C76.1326 42.7285 76.0835 42.7285 76.0306 42.7776C76.0306 42.9287 75.9815 43.0306 75.9324 43.2346C76.1326 43.3857 76.0835 43.5896 76.2345 43.6387C76.3365 43.7407 76.4876 43.7898 76.6386 43.7898C76.7406 43.8426 76.8917 43.8426 77.0428 43.7407C77.0428 43.6387 77.1447 43.5896 77.1976 43.4876C77.3487 43.5896 77.3978 43.3857 77.5489 43.3857C77.4507 43.3366 77.3978 43.2346 77.3978 43.2346C77.4998 43.1817 77.6017 43.1817 77.6017 43.1326C77.6017 42.9287 77.7528 42.8796 77.8548 42.6756C78.1078 42.7776 78.1569 42.4754 78.308 42.3735C78.3609 42.3735 78.4628 42.3735 78.41 42.3735C78.561 42.3244 78.6139 42.2715 78.663 42.2224C78.765 42.1204 78.867 42.1204 78.867 42.0713C78.9689 41.9694 79.12 41.8674 79.222 41.7163C79.2711 41.7163 79.3202 41.6634 79.373 41.6143C79.4221 41.5652 79.5241 41.5652 79.6752 41.4633C79.6752 41.4633 79.6752 41.4633 79.6261 41.4633C79.7772 41.4104 79.9282 41.3613 80.1322 41.2593C80.3324 41.0592 80.6383 40.9043 80.8384 40.8061C80.8384 40.7041 80.8384 40.6513 80.8384 40.6022C81.1444 40.5002 81.3974 40.3491 81.6505 40.2471C81.6505 40.198 81.6505 40.1452 81.6996 40.1452C81.7524 40.1452 81.7524 40.1452 81.8015 40.1452C82.1565 39.8921 82.6135 39.7411 82.8666 39.5371C83.0668 39.4389 83.2178 39.4389 83.3727 39.386C83.5237 39.235 83.6257 39.235 83.8259 39.235C83.977 39.133 84.0789 39.031 84.1809 38.9328C84.23 38.9328 84.332 38.9328 84.3849 38.9328C84.687 38.8799 84.8909 38.7289 85.2422 38.778C85.3442 38.778 85.397 38.778 85.397 38.778C85.4952 38.778 85.5972 38.7289 85.6501 38.7289C85.8502 38.778 86.1033 38.778 86.2544 38.8308C86.3072 38.8308 86.3072 38.8799 86.2544 38.9819C86.3072 39.031 86.3563 39.031 86.3072 39.0839C86.4092 39.235 86.3072 39.3369 86.3072 39.488C86.2544 39.692 86.1562 39.7901 86.1033 39.945C86.0013 40.198 85.9031 40.4511 85.8011 40.6513C85.5972 40.7041 85.5481 40.8552 85.397 40.9572C85.2422 41.0063 85.144 41.0592 84.9891 41.1082H84.8909C84.687 41.1573 84.5359 41.2102 84.4339 41.2593C84.332 41.3122 84.23 41.3122 84.1318 41.4104C84.0298 41.4633 83.9279 41.4104 83.8788 41.4633C83.7768 41.5124 83.6257 41.5652 83.5237 41.5652C83.5237 41.5652 83.4709 41.5652 83.3727 41.6143C83.0668 41.7654 82.7646 41.8183 82.5116 42.0185C82.1565 42.1204 81.9035 42.3244 81.5976 42.4754C81.3445 42.5245 81.1935 42.6265 80.9404 42.7285C80.7893 42.8796 80.5854 42.9287 80.3852 43.0306C80.1813 43.1817 79.8791 43.2346 79.7281 43.3857C79.5732 43.4348 79.5241 43.5367 79.4221 43.5896C79.12 43.5896 78.9161 43.7898 78.7159 43.8917C78.5119 44.0428 78.308 44.1939 78.1078 44.2959C77.7037 44.4998 77.3487 44.7 77.0428 44.953C76.9446 45.055 76.7897 45.055 76.6915 45.157C76.6915 45.2061 76.6386 45.157 76.6386 45.157C76.4385 45.2589 76.2836 45.41 76.1326 45.5611C76.1326 45.5611 76.0835 45.5611 75.9324 45.512C75.9324 45.614 75.9324 45.6631 75.8304 45.765C75.7284 45.765 75.6265 45.9652 75.5774 46.1201C75.5245 46.2183 75.3734 46.3202 75.3243 46.3731C75.1695 46.7772 75.0184 47.1322 75.1695 47.5854C75.1695 47.6383 75.2224 47.7403 75.3243 47.7894C75.3734 47.8385 75.4225 47.9405 75.5774 47.9405C75.6265 47.9933 76.1326 48.0424 76.1854 47.9405C76.2836 47.7894 76.4876 47.8385 76.6386 47.6874C76.6386 47.6874 76.6915 47.6383 76.6915 47.6874C76.7897 47.7403 76.8426 47.5854 76.9446 47.5854C76.9937 47.5854 76.9937 47.6383 77.0428 47.6383C77.1976 47.4873 77.3978 47.3853 77.6017 47.2342C77.6508 47.2342 77.6508 47.2833 77.7037 47.2833C77.7528 47.1322 78.0058 47.1813 78.0058 47.0303C78.3609 47.0303 78.561 46.8263 78.8141 46.5733C78.867 46.6261 78.867 46.6261 78.9161 46.6261C78.9689 46.5733 78.9689 46.5242 79.018 46.4751C79.0671 46.4751 79.1691 46.5242 79.222 46.5242C79.373 46.3731 79.4221 46.2711 79.5732 46.1692C79.8791 46.1201 80.0302 46.0181 80.2342 45.8141C80.2833 45.765 80.3324 45.765 80.3324 45.7122C80.4872 45.7122 80.5854 45.614 80.7402 45.5611C80.7402 45.512 80.7893 45.4591 80.8384 45.41C80.8384 45.41 80.8384 45.308 80.8913 45.2589C80.9404 45.2589 80.9933 45.308 81.0424 45.308C81.1444 45.2061 81.1935 45.1079 81.2463 45.055C81.3445 45.0059 81.4465 44.8548 81.5976 44.802C81.7524 44.8548 81.9526 44.6018 82.1565 44.6018C82.2056 44.4998 82.2585 44.4998 82.3076 44.4469H82.3605C82.5116 44.2959 82.6135 44.2959 82.6626 44.1939C82.7117 44.1939 82.7117 44.1939 82.7117 44.1939C82.8137 44.0957 82.8666 43.9408 82.9157 43.7898C82.9157 43.7898 82.9648 43.7407 83.0177 43.6878C83.3727 43.7407 83.5728 43.5896 83.7768 43.2346C83.977 43.2346 84.0298 43.0306 84.23 42.9815C84.1809 42.9287 84.2829 42.8796 84.2829 42.7776C84.4339 42.6756 84.585 42.6756 84.7361 42.5774C84.8381 42.4754 84.8909 42.3735 84.9891 42.2715C85.042 42.1695 85.0911 42.1204 85.144 42.0185C85.2422 42.0185 85.2951 42.0185 85.3442 42.0713C85.397 41.9694 85.397 41.8674 85.4461 41.7654C85.5972 41.7163 85.6992 41.6143 85.8011 41.5652C85.8502 41.5124 85.9522 41.4104 86.0013 41.4104C86.0013 41.4104 86.0013 41.4104 86.0542 41.4104C86.1033 41.3613 86.1562 41.3613 86.1562 41.3122C86.2053 41.2593 86.2053 41.2593 86.2053 41.2102C86.3563 41.1082 86.3563 41.0063 86.5074 40.8552C86.6623 40.8061 86.7114 40.7532 86.7605 40.6513C86.7605 40.6513 86.7605 40.5531 86.7605 40.5002C86.7605 40.5002 86.9153 40.3 86.9644 40.3491C86.9153 40.3 86.9644 40.3 87.0135 40.2471C86.9644 40.198 86.9644 40.198 86.9644 40.1452C87.0664 40.047 87.1683 39.945 87.1683 39.8921C87.2174 39.7411 87.2174 39.59 87.2174 39.488C87.3194 39.386 87.3194 39.2841 87.2174 39.133C87.2174 39.031 87.1683 38.9819 87.2174 38.8799C87.2174 38.7289 87.1683 38.5778 87.0664 38.4267C86.8133 38.3248 86.6623 38.1737 86.4583 38.0717C86.3072 38.0717 86.2544 38.1208 86.2053 38.0717C86.0013 38.0188 85.8011 38.0188 85.6992 37.9697C85.397 37.9206 85.0911 37.9206 84.8381 38.1208C84.8381 38.0717 84.789 38.0188 84.7361 38.0188C84.6379 38.0717 84.5359 38.0717 84.4339 38.1208C84.1809 38.1737 83.9279 38.2719 83.6748 38.3739C83.5728 38.3739 83.5237 38.3739 83.5237 38.4267C83.4218 38.4758 83.4218 38.4758 83.4218 38.4758C83.1196 38.6269 82.9648 38.7289 82.7117 38.8308C82.6626 38.8308 82.6135 38.8308 82.6135 38.8308C82.5607 38.8308 82.5116 38.9328 82.3605 38.8799C82.3076 38.8799 82.2056 38.9819 82.1565 39.031C82.1565 39.031 82.0546 39.0839 82.0055 39.133C81.7524 39.235 81.5976 39.3369 81.3974 39.4389C81.3974 39.4389 81.3974 39.386 81.3445 39.386C81.2463 39.488 81.2463 39.59 81.1444 39.59C81.0424 39.59 81.0424 39.59 80.9933 39.59C80.8913 39.6391 80.8384 39.692 80.7893 39.7411C80.7893 39.7411 80.7893 39.7411 80.7402 39.7411C80.6383 39.7411 80.5363 39.7411 80.4872 39.7901C80.4872 39.945 80.4872 40.0961 80.3324 40.1452C80.2833 40.1452 80.1322 40.1452 80.0793 39.9941C80.1322 39.945 80.2342 39.945 80.3324 39.8921C80.4872 39.7411 80.6383 39.5371 80.7893 39.3369C80.8384 39.2841 80.8384 39.2841 80.8384 39.2841C80.8913 39.1859 80.9404 39.031 81.0424 38.9328C81.1444 38.8308 81.1444 38.6798 81.2954 38.6269C81.3445 38.6269 81.3445 38.5249 81.3974 38.4758C81.3974 38.4267 81.3974 38.3248 81.4465 38.2228C81.5976 38.1737 81.6996 38.1208 81.8015 38.1208C81.8506 38.0188 81.9035 37.9206 81.9035 37.8678C82.0546 37.6147 82.1565 37.4636 82.3076 37.2597C82.4096 37.2597 82.4587 37.2106 82.5116 37.2106C82.5116 37.1086 82.5116 37.0067 82.5607 36.9576C82.6135 37.0067 82.6626 37.0067 82.6626 37.0067C82.6626 36.9576 82.8137 36.9085 82.8666 36.8556C82.8666 36.6554 83.0668 36.6025 83.1687 36.5006C83.3198 36.0964 83.5237 35.9454 83.7239 35.6432C83.7768 35.6432 83.8259 35.6432 83.8788 35.6432C83.977 35.5413 84.0298 35.3902 84.1318 35.1862C84.1809 35.1862 84.2829 35.1862 84.4339 35.0843C84.483 34.9823 84.483 34.8312 84.6379 34.7292C84.789 34.6801 84.8909 34.5291 84.94 34.3251C85.1931 34.276 85.2951 34.125 85.3442 33.921C85.397 33.921 85.4952 33.8719 85.4952 33.819C85.8011 33.566 86.0013 33.362 86.2544 33.1619C86.3072 33.0108 86.6094 32.9088 86.7114 32.7578C86.7114 32.7049 86.7605 32.7049 86.8624 32.7049C86.8133 32.6558 86.9153 32.6558 86.9644 32.6029C87.0135 32.4518 87.1683 32.4027 87.2665 32.3499C87.3685 32.3008 87.4705 32.1988 87.5196 32.0968C87.6744 32.0477 87.7726 31.9458 87.9766 31.8438C88.0257 31.7456 88.1277 31.6436 88.2825 31.5416C88.2825 31.5416 88.3316 31.4397 88.2825 31.4925C88.4336 31.3906 88.5355 31.2395 88.5846 31.1866C88.5846 31.0846 88.6337 31.0846 88.6866 31.0355C88.8868 30.8845 89.0416 30.7334 89.2418 30.6314C89.4458 30.5786 89.5477 30.4275 89.5968 30.1744C89.6988 30.1253 89.8008 30.0234 89.899 29.9743C90.0538 29.9214 90.1029 29.8194 90.1029 29.7212C90.2049 29.7212 90.356 29.6683 90.356 29.6192C90.4051 29.4682 90.5599 29.3662 90.711 29.2642C90.7601 29.2642 90.7601 29.2151 90.813 29.1623C91.066 29.1132 91.1151 28.8601 91.2662 28.709C91.319 28.709 91.3681 28.7581 91.4172 28.7581C91.5721 28.6071 91.7232 28.456 91.7723 28.354C91.8251 28.2029 92.0782 28.101 92.1764 27.897C92.1273 27.897 92.1764 27.8479 92.1764 27.7951C92.2783 27.7951 92.3312 27.746 92.4294 27.746C92.6334 27.4929 92.8864 27.289 93.1886 27.0359C93.2414 26.9868 93.2414 26.8357 93.4416 26.7829C93.5436 26.6809 93.5964 26.6318 93.6455 26.4807C93.6946 26.4807 93.7475 26.4807 93.7966 26.4807C93.8986 26.1748 94.0006 26.0766 94.2536 26.0237C94.2536 25.9746 94.2007 25.9218 94.2007 25.9218C94.3556 25.7216 94.5067 25.6196 94.7106 25.4686C94.7597 25.3666 94.8617 25.3666 94.9108 25.2646C94.9108 25.1626 95.0618 25.1626 95.0618 25.1626C95.0618 24.9096 95.3678 24.8114 95.4697 24.7094C95.4697 24.5055 95.6699 24.4035 95.821 24.2524C95.923 24.2524 96.0249 24.1505 96.1269 24.1014C96.1269 23.9994 96.1269 23.8974 96.1269 23.8974C96.278 23.7992 96.3271 23.7463 96.4819 23.6972C96.735 23.3422 97.0862 23.0401 97.3393 22.6322C97.4412 22.534 97.5432 22.432 97.6452 22.432C97.6452 22.3791 97.5923 22.33 97.6452 22.2809C97.7471 22.179 97.7962 22.077 98.0002 21.975C98.0984 21.873 98.0984 21.6729 98.1513 21.5218C98.2532 21.5218 98.3514 21.4689 98.3514 21.367C98.3514 21.3179 98.3514 21.3179 98.4043 21.2159C98.4534 21.2159 98.4534 21.2688 98.5063 21.2688C98.5554 21.1668 98.5554 21.1139 98.6045 21.0648C98.6574 21.0157 98.7064 21.0157 98.7064 21.0157C98.8084 20.8118 98.8575 20.6078 99.0615 20.5587C99.0615 20.5058 99.0615 20.4567 99.0615 20.4076C99.2125 20.2528 99.2654 20.1546 99.3636 20.1017C99.3145 19.9507 99.3145 19.9016 99.2654 19.7467C99.3636 19.7467 99.4656 19.6976 99.4656 19.6976C99.5676 19.4937 99.6695 19.2935 99.5676 19.0895ZM83.6257 42.5774C83.5728 42.6756 83.4218 42.7776 83.3727 42.7776C83.1687 42.9287 83.0668 43.0306 82.8666 43.1817C82.8666 43.2346 82.7117 43.2837 82.6626 43.3857C82.6626 43.3857 82.6626 43.3857 82.6135 43.3857C82.5116 43.3857 82.5116 43.4876 82.4096 43.5367C82.2585 43.5896 82.2056 43.6878 82.1565 43.7898C82.0546 43.7898 81.9526 43.8917 81.9526 43.9408C81.7524 44.0428 81.5976 44.1448 81.3974 44.2468C81.2954 44.2959 81.1444 44.3487 81.0915 44.5489C81.0424 44.5489 81.0424 44.5489 81.0424 44.5489C81.0424 44.6509 81.0424 44.6509 81.0424 44.7C80.8913 44.7 80.7893 44.7529 80.6383 44.7529C80.5854 44.802 80.5363 44.8548 80.5363 44.9039C80.4872 44.9039 80.4872 44.8548 80.4872 44.8548C80.2833 45.157 79.9282 45.2061 79.7281 45.41C79.5732 45.41 79.475 45.41 79.4221 45.5611C79.4221 45.614 79.222 45.6631 79.1691 45.765C79.1691 45.765 79.12 45.8141 79.12 45.9161C79.018 45.867 79.018 45.867 78.9689 45.867C79.018 45.9161 79.018 45.9652 79.018 45.9652C78.9689 46.0181 78.9689 46.0181 78.9689 46.0181C78.867 45.9652 78.7159 45.9652 78.6139 46.1201C78.5119 46.1201 78.4628 46.1201 78.41 46.2183C78.3609 46.2183 78.308 46.2711 78.308 46.3202C78.2098 46.2711 78.1078 46.3202 78.0549 46.3731C77.9039 46.4222 77.8019 46.5242 77.6017 46.5733C77.4998 46.5733 77.3978 46.6752 77.1976 46.7772C77.0428 46.8792 76.8426 46.9812 76.6915 47.0303C76.6386 47.0303 76.5896 47.0303 76.5896 47.0794C76.2836 47.0794 76.2836 47.0794 76.0306 47.0303C76.1854 46.6752 76.3365 46.4751 76.6915 46.3202C76.6915 46.2183 76.6915 46.1201 76.7406 46.1201C76.8426 46.1201 76.8426 46.0672 76.9446 46.0672C76.9446 46.0181 77.0428 45.9652 77.0428 45.9161C77.1976 45.765 77.2958 45.7122 77.4507 45.6631C77.4998 45.614 77.6017 45.614 77.6017 45.5611C77.6017 45.4591 77.7528 45.41 77.8548 45.308C77.8019 45.308 77.9039 45.2589 77.9039 45.2061C77.9567 45.2061 78.0549 45.157 78.2098 45.2061C78.2589 45.1079 78.308 44.953 78.5119 44.9039C78.5119 44.9039 78.561 44.802 78.6139 44.7529C78.867 44.7 79.8263 44.1939 80.0302 43.9408C80.1322 43.9937 80.1322 43.9937 80.1813 44.0428C80.1813 44.0428 80.2342 44.0428 80.2342 43.9937C80.2833 43.8426 80.3852 43.7898 80.5363 43.7898C80.6874 43.6878 80.7893 43.6387 80.8384 43.4876C81.0424 43.3857 81.2954 43.3857 81.4994 43.2837C81.6505 43.2346 81.7524 43.0835 81.8506 43.0306C82.1565 43.0306 82.2585 42.8796 82.4096 42.7776C82.4587 42.7776 82.4587 42.7285 82.5116 42.6756C82.6626 42.6756 82.8666 42.6756 82.8666 42.4754C83.0668 42.4754 83.1196 42.4754 83.2707 42.3735H83.4709C83.5237 42.3244 83.5728 42.3244 83.5728 42.2224C83.6257 42.2224 83.7768 42.1695 83.8788 42.2715C83.8788 42.4754 83.7239 42.4754 83.6257 42.5774ZM83.977 42.3244C83.9279 42.0713 84.0789 42.1204 84.1809 42.0185C84.1809 42.1204 84.1809 42.1204 84.1809 42.1695C84.0789 42.2224 83.977 42.2715 83.977 42.3244ZM97.3393 21.62C97.2411 21.6729 97.1882 21.722 97.1391 21.722C97.0862 21.975 96.9351 22.077 96.735 22.2281C96.735 22.2809 96.6821 22.33 96.6821 22.432C96.5801 22.432 96.531 22.534 96.531 22.5831C96.3799 22.6851 96.3271 22.8361 96.2289 22.8852C96.2289 22.9381 96.176 22.9381 96.074 22.9872C95.9758 23.1383 95.923 23.2931 95.821 23.4442C95.7719 23.4442 95.6699 23.4933 95.6208 23.5462C95.4169 23.7463 95.2658 23.8483 95.1147 24.0523C95.0618 24.1014 95.0127 24.2033 94.9108 24.2524C94.9108 24.2524 94.9108 24.3053 94.7597 24.3544C94.7597 24.4035 94.7597 24.4564 94.7106 24.5583C94.6577 24.6074 94.5558 24.6565 94.4538 24.7094C94.3556 24.9096 94.1516 25.1135 93.9477 25.2646C93.7966 25.3666 93.6946 25.4686 93.5964 25.5705C93.5436 25.6196 93.4416 25.7216 93.2905 25.7216C93.2414 25.9746 93.0904 26.0766 92.8864 26.1257C92.6825 26.4807 92.5314 26.6809 92.2292 26.9339C91.9762 27.0888 91.7232 27.3418 91.5721 27.542C91.4701 27.644 91.4172 27.6969 91.4172 27.746C91.2171 27.897 91.066 28.101 90.813 28.2029C90.7601 28.252 90.711 28.3011 90.609 28.354C90.507 28.456 90.4051 28.6071 90.356 28.709C90.3069 28.7581 90.254 28.8072 90.2049 28.8072C90.152 28.8072 90.1029 28.8072 90.0538 28.8072C90.0538 28.6562 90.2049 28.6071 90.356 28.456C90.356 28.354 90.4579 28.252 90.507 28.101C90.813 27.897 91.066 27.8479 91.1642 27.4929H91.2662C91.2662 27.4438 91.2662 27.3909 91.2662 27.3909C91.2662 27.3909 91.319 27.3909 91.3681 27.3909C91.4172 27.289 91.5721 27.2399 91.5721 27.1379C91.5721 27.0888 91.6703 26.9868 91.7232 26.9868C91.7723 26.9868 91.8742 26.8357 91.9762 26.6809C92.0253 26.6318 92.0253 26.5827 92.0253 26.5298C92.1273 26.5298 92.1764 26.5298 92.1764 26.4807C92.1764 26.4807 92.1764 26.4279 92.2292 26.3297C92.5843 26.2277 92.7353 25.9746 92.9884 25.7216C92.9884 25.6196 93.0375 25.5705 93.0904 25.4157C93.0904 25.4686 93.0904 25.4686 93.1886 25.4686C93.2905 25.3666 93.3925 25.2646 93.4945 25.1626C93.5436 25.1626 93.4945 25.1626 93.4945 25.0644C93.5964 25.0116 93.6946 25.0116 93.6946 24.9625C93.8495 24.8114 93.9477 24.7094 94.0497 24.6565C94.1516 24.5055 94.2007 24.4035 94.2536 24.2524C94.3027 24.2524 94.3556 24.2524 94.4538 24.2524C94.4538 24.2524 94.5067 24.2033 94.6086 24.1505C94.6577 24.1014 94.7106 23.9994 94.7106 23.8974C94.7106 23.8974 94.8088 23.8974 94.8617 23.8974C94.9108 23.7992 95.0618 23.6972 95.1638 23.5462C95.3678 23.4933 95.4169 23.2931 95.5679 23.2402C95.6699 23.0892 95.7228 22.9872 95.7719 22.8852C95.821 22.8852 95.821 22.8852 95.8739 22.8852C96.1269 22.6322 96.4819 22.432 96.5801 22.0279C96.6821 22.077 96.735 22.077 96.735 22.077C96.886 21.9259 97.0371 21.722 97.0862 21.5218H97.3921C97.3921 21.5218 97.3921 21.62 97.3393 21.62Z" fill="#161128"/>
<path d="M92.3782 38.5251C92.4802 38.4269 92.4802 38.374 92.4802 38.3249C92.5331 38.3249 92.6313 38.272 92.5822 38.272C92.6313 38.1738 92.7332 38.1209 92.7861 38.019C92.8843 37.9208 93.0392 37.7659 93.0392 37.5658C93.0883 37.5658 93.1411 37.5658 93.1902 37.5129C93.2922 37.3618 93.3942 37.3618 93.4924 37.3618C93.5943 37.2598 93.6472 37.1616 93.7454 37.1616C93.7454 37.0068 93.7454 36.8557 93.8474 36.8066C93.9494 36.8557 93.9494 36.8557 93.9985 36.8557C94.1004 36.6556 94.3535 36.5536 94.5574 36.5007C94.5574 36.4516 94.5574 36.4025 94.6594 36.3496C94.7085 36.3496 94.7576 36.3496 94.7576 36.3496C94.9124 36.1495 94.9615 35.9455 95.1126 35.8435C95.2637 35.7416 95.3166 35.5414 95.3166 35.3903C95.4676 35.2355 95.4676 35.0844 95.4676 34.9333C95.4185 34.7823 95.3657 34.6803 95.3166 34.5783C95.2146 34.5292 95.1655 34.4763 95.0635 34.4272C95.0106 34.4763 95.0106 34.5292 94.9615 34.5292C94.8596 34.6312 94.7576 34.7294 94.7085 34.8842C94.7085 34.9333 94.6594 34.9333 94.6594 34.9333C94.5046 35.0844 94.3535 35.1864 94.1533 35.3375C94.1533 35.4394 94.0513 35.5905 94.0513 35.7416C93.7983 35.7944 93.6472 35.9455 93.5453 36.0966C93.4924 36.1495 93.4433 36.1986 93.3942 36.1986C93.1902 36.3496 92.9863 36.5536 92.8352 36.7538C92.7332 36.8066 92.7332 36.8557 92.6313 36.9577C92.6313 37.0597 92.4802 37.1616 92.3291 37.2107C92.28 37.3127 92.2271 37.3618 92.1252 37.4638C92.0761 37.5658 91.9741 37.7659 91.823 37.7659C91.7739 37.9208 91.7211 37.9699 91.5209 38.0719C91.4189 38.1738 91.3169 38.1738 91.3169 38.272C91.3169 38.374 91.113 38.476 91.0639 38.5779H91.113C90.9128 38.831 90.7089 39.0312 90.4558 39.2842C90.3539 39.3862 90.2557 39.4881 90.1537 39.5901C90.0517 39.6921 90.0026 39.7903 89.9006 39.8923C89.9006 39.9451 89.8478 39.9451 89.7987 39.9942C89.6967 40.2473 89.4965 40.5003 89.3417 40.6514C89.0886 41.0064 88.8885 41.4105 88.5334 41.6145C88.5334 41.7165 88.4843 41.8184 88.4843 41.8184C88.4843 41.8675 88.3824 41.9166 88.3295 42.0186C88.2313 42.0715 88.1293 42.1697 88.0765 42.2716C87.9783 42.4227 87.9254 42.5247 87.8763 42.6267C87.7252 42.8306 87.5704 42.9288 87.4722 43.0837C87.5704 43.2838 87.8763 43.2838 87.9254 43.5369C88.0274 43.6388 88.1293 43.6388 88.2804 43.6879C88.2804 43.6388 88.3295 43.6388 88.3824 43.5369C88.5334 43.3858 88.6354 43.2347 88.7865 43.0837C88.9376 42.8797 89.1415 42.7286 89.3417 42.5247C89.6476 42.2225 89.9006 41.9166 90.2028 41.6636C90.2557 41.6636 90.3048 41.6145 90.3048 41.6145C90.5087 41.4634 90.7089 41.3123 90.9128 41.1575C91.0148 41.0064 91.215 40.9044 91.4189 40.8062C91.672 40.6023 91.925 40.3984 92.1781 40.1982C92.5331 39.9942 92.9372 39.6921 93.3413 39.4881C93.3942 39.4391 93.4433 39.3862 93.4433 39.3862C93.5453 39.3862 93.6472 39.3862 93.6963 39.3371C93.7983 39.186 93.9494 39.084 94.1533 38.9821C94.3535 38.7781 94.5574 38.627 94.8105 38.476C95.1655 38.272 95.5167 38.0719 95.8227 37.8679C95.9737 37.7659 96.1777 37.6677 96.3287 37.6149C96.782 37.3618 97.3409 37.2107 97.949 37.0597C98.0472 37.0068 98.202 36.9577 98.4022 36.9577C98.7081 36.9577 98.9612 37.0068 99.2142 37.1088C99.3653 37.1088 99.4673 37.1616 99.6183 37.1616C99.7694 37.1616 99.8714 37.1616 100.022 37.3618C100.022 37.3618 100.022 37.4638 100.022 37.5658C100.075 37.6149 100.174 37.6677 100.226 37.7659C100.275 37.6677 100.275 37.6149 100.226 37.5658C100.275 37.4638 100.226 37.3618 100.174 37.3127C100.124 37.2107 100.075 37.1088 100.022 37.0068C100.022 37.0068 100.022 37.0068 99.9205 37.0068C99.8714 36.9577 99.8223 36.8557 99.7694 36.7538C99.6674 36.7047 99.5692 36.6027 99.4673 36.5536C99.4144 36.5536 99.3653 36.5536 99.3162 36.5536C99.2633 36.5536 99.2142 36.5007 99.2142 36.4516C99.1122 36.4516 99.0103 36.4516 99.0103 36.4516C98.9083 36.3496 98.8063 36.3005 98.7081 36.3005C98.5042 36.3496 98.202 36.2477 97.9981 36.3496C97.745 36.2477 97.5411 36.4025 97.2881 36.4025C97.239 36.4516 97.1899 36.5007 97.1899 36.5536C97.137 36.5007 97.137 36.4516 97.0879 36.4516C96.782 36.5536 96.5289 36.5536 96.4307 36.9086C96.3778 36.8557 96.3778 36.8557 96.3287 36.8557C96.2759 36.8557 96.1777 36.9086 96.1777 36.9086C95.9737 36.8557 95.8227 36.9577 95.7207 37.0068C95.4676 37.1616 95.2146 37.2598 94.9615 37.3618C94.6594 37.5658 94.3044 37.7168 94.1004 37.9699C94.1004 37.9699 93.9985 38.019 93.9494 38.019C93.8474 38.0719 93.7454 38.1738 93.7454 38.272C93.6963 38.2229 93.6472 38.2229 93.5943 38.1738C93.1902 38.476 92.8352 38.729 92.4311 38.9821C92.4311 39.0312 92.3291 39.1331 92.3291 39.186C92.28 39.186 92.28 39.186 92.28 39.186C92.0761 39.3371 91.925 39.4881 91.7211 39.5901C91.7211 39.4391 91.7211 39.2842 91.7211 39.186C91.823 39.084 91.925 38.9821 92.0761 38.8801C92.1252 38.831 92.1252 38.7781 92.1252 38.729C92.1252 38.6799 92.1781 38.6799 92.2271 38.6799C92.3291 38.5779 92.3291 38.5779 92.3291 38.476L92.3782 38.5251Z" fill="#161128"/>
<path d="M108.477 38.8799C108.322 39.1858 108.223 39.386 108.069 39.6919C108.069 39.6919 108.069 39.741 108.02 39.741C107.918 39.7901 107.868 39.8921 107.816 39.994C107.766 40.096 107.717 40.198 107.665 40.2471C107.563 40.451 107.464 40.6512 107.362 40.8061C107.362 40.9043 107.26 41.0591 107.211 41.1082C107.211 41.2593 107.056 41.4103 107.007 41.5652C106.958 41.8673 106.856 42.1695 106.803 42.4754C106.803 42.6756 106.905 42.8795 107.007 42.9815C107.007 43.0306 107.211 43.1326 107.211 43.2345C107.26 43.2345 107.362 43.2345 107.411 43.2345C107.411 43.2836 107.513 43.3365 107.563 43.3856C107.665 43.2836 107.766 43.3365 107.918 43.3856C108.02 43.3856 108.121 43.3856 108.273 43.3856C108.273 43.3856 108.424 43.3365 108.477 43.3365C108.575 43.3365 108.628 43.2836 108.828 43.2836C109.032 43.1817 109.183 43.1817 109.436 43.1326C109.489 43.1326 109.489 43.1817 109.489 43.1817C109.538 43.1326 109.538 43.0835 109.587 43.0306C109.64 43.0306 109.689 43.0835 109.689 43.0835C109.942 42.9815 110.044 42.9286 110.248 42.8304C110.297 42.8795 110.346 42.8795 110.346 42.8795C110.448 42.8304 110.603 42.6756 110.652 42.6756C110.856 42.6756 110.954 42.5774 111.109 42.4754C111.207 42.4754 111.309 42.3734 111.362 42.3734C111.562 42.3243 111.713 42.2715 111.815 42.1204C111.815 42.0713 111.917 42.0184 112.019 42.0184C112.272 41.9693 112.472 41.8182 112.676 41.7163C112.827 41.6143 113.08 41.5123 113.231 41.4632C113.333 41.4103 113.386 41.4103 113.485 41.3121C113.485 41.2102 113.587 41.2102 113.639 41.2102H113.738C113.738 41.1082 113.738 41.1082 113.738 41.0591C113.79 41.0591 113.84 41.0591 113.892 41.0591C113.942 41.0062 113.991 40.9571 113.991 40.9571C114.346 40.9043 114.55 40.7041 114.905 40.553C114.852 40.5001 114.852 40.3491 114.803 40.3C114.652 40.3 114.599 40.5001 114.497 40.5001C114.244 40.5001 114.044 40.6512 113.79 40.7041C113.79 40.8061 113.738 40.8552 113.738 40.8552C113.639 40.8552 113.587 40.8552 113.587 40.8061C113.485 40.8552 113.435 40.9043 113.333 41.0062C113.182 41.0591 113.133 41.0591 113.031 41.0591C112.978 41.1082 112.827 41.1573 112.676 41.2102C112.627 41.2593 112.525 41.3612 112.472 41.3612C112.219 41.4632 111.966 41.5652 111.664 41.6143C111.664 41.6143 111.615 41.6143 111.562 41.6634C111.362 41.8182 111.109 41.9164 110.856 42.0713C110.856 42.0184 110.803 42.0184 110.754 42.0184C110.701 42.0184 110.701 42.1204 110.652 42.1204C110.448 42.1695 110.297 42.2715 110.044 42.3243C110.093 42.3243 110.044 42.2715 109.995 42.2224C109.893 42.3734 109.489 42.4754 109.236 42.5245C109.183 42.4754 109.134 42.4754 109.081 42.4754C109.032 42.4754 108.983 42.4754 108.93 42.5245C108.828 42.4754 108.779 42.4754 108.73 42.4754C108.677 42.4754 108.628 42.4225 108.628 42.3734C108.477 42.4225 108.223 42.3734 108.069 42.3243C107.97 42.2715 107.918 42.1695 107.868 42.1204C107.816 41.9693 107.868 41.8182 107.816 41.6634C107.918 41.4103 108.121 41.0591 108.273 40.6512C108.477 40.3491 108.628 40.096 108.828 39.741C108.93 39.741 108.93 39.6919 108.93 39.6919C109.032 39.5371 109.081 39.4389 109.081 39.3369C109.236 39.1329 109.387 38.9328 109.489 38.7288C109.587 38.5249 109.742 38.3738 109.893 38.1736C110.044 37.9206 110.248 37.5656 110.448 37.3616C110.448 37.2596 110.448 37.2106 110.501 37.1615C110.652 37.0066 110.754 36.8555 110.856 36.6554C110.954 36.4514 111.056 36.1493 111.207 35.9453C111.109 35.8434 111.007 35.8962 110.905 35.8962V35.8434C110.954 35.7943 111.007 35.7414 111.007 35.6923C111.007 35.6923 110.954 35.6923 110.856 35.6923C110.856 35.6432 110.954 35.5903 110.905 35.5903C110.905 35.4883 110.856 35.4392 110.856 35.3901C110.856 35.4392 110.803 35.4883 110.803 35.5412C110.701 35.5412 110.652 35.4883 110.603 35.4392C110.603 35.5412 110.603 35.5903 110.55 35.6432C110.399 35.6923 110.297 35.7414 110.146 35.8434C109.893 36.0964 109.84 36.0964 109.538 36.1984C109.538 36.3003 109.489 36.3494 109.436 36.4514C109.387 36.5005 109.334 36.5005 109.285 36.5005C109.032 36.6554 108.828 36.8064 108.575 36.9575C108.477 37.0066 108.322 37.1086 108.223 37.0595C108.069 37.2105 107.868 37.3125 107.766 37.4145C107.717 37.4636 107.665 37.4636 107.717 37.4636C107.615 37.5656 107.563 37.6147 107.464 37.7166C107.211 37.8186 107.158 38.0717 106.905 38.1736C106.803 38.3247 106.652 38.3247 106.55 38.4267C106.603 38.4758 106.501 38.5249 106.399 38.5777C106.199 38.6797 105.893 38.8308 105.791 39.031C105.591 39.284 105.387 39.386 105.134 39.639C105.085 39.6919 105.085 39.741 105.032 39.741C104.934 39.741 104.832 39.843 104.681 39.9449C104.579 39.994 104.477 40.096 104.477 40.1451C104.326 40.198 104.273 40.2471 104.073 40.3C104.02 40.3491 103.971 40.5001 103.918 40.553C103.918 40.6021 103.869 40.553 103.869 40.6021C103.665 40.6512 103.514 40.7532 103.363 40.9571C103.212 41.0591 103.11 41.1082 103.008 41.1573C102.857 41.4103 102.706 41.4103 102.604 41.4103C102.555 41.4103 102.453 41.5123 102.4 41.5652C102.4 41.5123 102.4 41.5123 102.351 41.4632C102.301 41.5123 102.249 41.5652 102.249 41.5652C102.098 41.5652 101.795 41.6634 101.693 41.8673C101.542 41.8182 101.44 41.9693 101.387 42.0184C101.387 41.9693 101.338 41.9693 101.338 41.9693C101.338 42.0184 101.236 42.0713 101.187 42.1204C101.085 42.1204 100.983 42.2715 100.881 42.1695C100.983 41.9693 101.036 41.7654 101.236 41.6143C101.289 41.4103 101.338 41.2102 101.542 41.0591C101.542 41.0591 101.542 41.0062 101.542 40.9571C101.641 40.9571 101.641 40.9571 101.641 41.0062C101.693 40.8552 101.742 40.8552 101.742 40.7532C101.742 40.6512 101.742 40.6512 101.742 40.5001C101.894 40.451 102.048 40.3491 102.199 40.2471C102.351 39.994 102.653 39.741 102.906 39.5371C102.857 39.3369 103.008 39.3369 103.11 39.284C103.159 39.2349 103.159 39.1858 103.212 39.1858C103.363 39.1329 103.412 39.031 103.465 38.9328C103.567 38.8308 103.718 38.6797 103.82 38.6268C103.918 38.5249 104.02 38.4758 104.02 38.4267C104.073 38.3247 104.224 38.2227 104.273 38.1208C104.326 38.1208 104.326 38.1208 104.375 38.1208C104.477 37.9697 104.579 37.9206 104.628 37.7657C104.73 37.7657 104.779 37.7657 104.832 37.7657C104.881 37.6675 104.832 37.5656 104.881 37.4636C104.934 37.5656 104.983 37.5656 105.085 37.5127C105.085 37.4636 105.134 37.4145 105.134 37.4145C105.236 37.3616 105.338 37.3616 105.387 37.3125C105.489 37.2106 105.591 37.0066 105.742 36.9575C105.844 36.8555 105.946 36.7536 106.097 36.6554C106.199 36.5005 106.297 36.3003 106.399 36.0964C106.297 36.0964 106.297 35.9453 106.297 35.7943C106.097 35.7414 105.844 35.7943 105.693 35.8434C105.387 36.0473 105.187 36.2475 104.934 36.5005C104.832 36.5534 104.832 36.6554 104.681 36.7045C104.579 36.8064 104.428 36.9084 104.477 37.0066C104.273 37.1615 104.171 37.2596 104.122 37.4145C104.073 37.4145 104.073 37.4145 104.073 37.4145C103.918 37.4636 103.918 37.5127 103.767 37.5656C103.665 37.6675 103.514 37.7657 103.514 37.9206C103.363 38.0188 103.314 38.0717 103.159 38.1208C103.159 38.1736 103.159 38.2718 103.159 38.3247C103.11 38.3247 103.11 38.3247 103.061 38.3247C103.061 38.3738 103.008 38.4267 102.959 38.4758C102.755 38.5777 102.653 38.6797 102.555 38.8308C102.453 39.031 102.249 39.1329 102.199 39.284C102.147 39.284 102.098 39.3369 102.098 39.3369C101.996 39.386 101.946 39.4389 101.844 39.5371C101.844 39.5371 101.894 39.5899 101.844 39.5899C101.795 39.5899 101.742 39.639 101.742 39.639C101.693 39.6919 101.641 39.741 101.641 39.7901C101.542 39.843 101.489 39.8921 101.387 39.9449C101.289 40.1451 101.187 40.2471 101.036 40.3982C100.983 40.451 100.934 40.451 100.934 40.5001C100.832 40.6512 100.832 40.8061 100.681 40.9571L100.628 41.0062C100.579 41.0591 100.428 41.1082 100.375 41.2102C100.375 41.3121 100.277 41.4103 100.277 41.4632C100.224 41.5652 100.175 41.6143 100.073 41.7163C100.024 41.8673 99.9712 42.0184 99.8201 42.1204C99.771 42.1695 99.8201 42.2224 99.8201 42.2715C99.7181 42.3734 99.6162 42.4754 99.669 42.6265C99.6162 42.6756 99.5671 42.6756 99.518 42.6756C99.518 42.8795 99.518 42.9815 99.4651 43.1326C99.5671 43.3856 99.771 43.4347 100.073 43.5367C100.122 43.4876 100.277 43.4876 100.277 43.4347C100.326 43.4876 100.375 43.5367 100.375 43.5367C100.375 43.4876 100.428 43.4347 100.428 43.3856C100.681 43.3856 100.832 43.3856 100.983 43.3365C101.036 43.3365 101.036 43.3856 101.036 43.3856C101.134 43.3365 101.236 43.2345 101.289 43.2345C101.338 43.2345 101.387 43.2345 101.44 43.2345C101.795 42.9815 102.147 42.7284 102.604 42.5245C102.706 42.3734 102.906 42.1204 103.159 42.1204C103.212 42.0713 103.363 42.0184 103.412 41.9693C103.567 41.8673 103.616 41.7163 103.718 41.6143C103.718 41.6143 103.767 41.6143 103.82 41.6143C103.869 41.5652 103.918 41.5123 103.918 41.5123C104.122 41.3612 104.326 41.2102 104.526 41.1082C104.579 41.1082 104.579 41.0591 104.579 41.0591C104.934 40.9043 105.085 40.7041 105.387 40.553C105.44 40.451 105.538 40.3 105.693 40.3C105.893 40.1451 105.995 39.8921 106.297 39.7901C106.297 39.7901 106.297 39.741 106.35 39.741C106.452 39.741 106.452 39.6919 106.452 39.6919C106.452 39.5899 106.501 39.5899 106.452 39.488C106.55 39.5371 106.652 39.5899 106.705 39.5899C106.652 39.5371 106.754 39.4389 106.754 39.386C106.958 39.3369 106.958 39.3369 107.158 39.1858C107.211 39.1858 107.211 39.1329 107.211 39.0838C107.563 38.8799 107.717 38.6797 107.97 38.4758C107.97 38.3738 108.02 38.3738 108.02 38.3738C108.121 38.3738 108.121 38.3738 108.121 38.3738C108.171 38.3247 108.223 38.2718 108.273 38.2227C108.375 38.1736 108.477 38.1736 108.477 38.1736C108.575 38.0717 108.628 37.9206 108.73 37.8677C108.881 37.8677 108.983 37.7657 109.032 37.6147C109.081 37.5656 109.236 37.4636 109.334 37.4145C109.285 37.3616 109.236 37.3125 109.183 37.2105C109.334 37.2596 109.387 37.3125 109.489 37.3616C109.387 37.4145 109.387 37.5656 109.387 37.6675C109.183 37.7657 109.134 37.8677 109.032 37.9206C109.032 37.9697 109.032 38.0188 109.032 38.1208C108.828 38.2718 108.828 38.5777 108.575 38.6797C108.575 38.7779 108.575 38.8308 108.575 38.8308C108.575 38.8308 108.526 38.8308 108.477 38.8799ZM115.207 40.451C115.309 40.3491 115.411 40.3 115.411 40.198C115.411 40.198 115.309 40.198 115.256 40.198C115.207 40.2471 115.056 40.3 115.003 40.3982C115.105 40.3982 115.207 40.3982 115.207 40.451Z" fill="#161128"/>
<path d="M113.536 43.3857H113.94L113.993 43.2346L114.194 43.0835C114.447 42.7776 114.752 42.4755 115.055 42.2715C115.104 42.1696 115.259 42.1205 115.308 42.0185C115.41 41.9694 115.459 41.9165 115.512 41.8183C115.561 41.7654 115.663 41.7163 115.712 41.6144C115.765 41.5653 115.765 41.5653 115.814 41.5653C115.916 41.4104 116.018 41.3122 116.116 41.2103C116.218 41.2103 116.271 41.1083 116.369 41.0592C116.369 41.0592 116.422 41.0063 116.524 40.9572C116.573 40.9043 116.573 40.9043 116.573 40.8552C116.622 40.8552 116.724 40.7533 116.724 40.7042C116.875 40.6513 116.928 40.5531 116.928 40.4511L116.977 40.3982C116.977 40.3491 117.03 40.3491 117.03 40.3491C117.128 40.3491 117.128 40.3491 117.128 40.3H117.181C117.23 40.3 117.283 40.2472 117.283 40.1981C117.283 40.1981 117.283 40.1981 117.283 40.1452C117.332 40.1452 117.332 40.1452 117.434 40.1452C117.483 40.047 117.634 39.945 117.838 39.945C117.838 39.8922 117.887 39.8431 117.94 39.7902C117.989 39.7411 118.042 39.692 118.091 39.59C118.091 39.59 118.193 39.59 118.193 39.5371C118.295 39.3861 118.344 39.337 118.495 39.2841C118.597 39.235 118.699 39.133 118.748 39.031C118.801 38.9819 118.801 38.9819 118.85 38.9328C119.054 38.8309 119.205 38.778 119.307 38.6798C119.409 38.525 119.507 38.4759 119.662 38.3739H119.761C119.915 38.2228 120.116 38.0189 120.369 37.9207C120.218 38.1208 120.066 38.3248 119.915 38.5778C119.862 38.7289 119.711 38.88 119.56 39.0839C119.507 39.1859 119.458 39.2841 119.409 39.337C119.409 39.3861 119.409 39.3861 119.356 39.3861C119.307 39.488 119.254 39.5371 119.205 39.59C119.103 39.692 119.054 39.7411 119.054 39.8922V39.945H119.001C118.952 39.945 118.952 39.945 118.952 39.9941C118.903 40.1452 118.801 40.2472 118.699 40.3491C118.597 40.4511 118.548 40.5531 118.495 40.6513C118.495 40.6513 118.495 40.6513 118.446 40.6513C118.393 40.7042 118.393 40.7042 118.393 40.7533C118.393 40.9043 118.242 41.0592 118.14 41.1083V41.1574C118.042 41.2103 118.042 41.3613 118.042 41.4104C117.838 41.7163 117.687 41.9694 117.585 42.2224C117.585 42.2715 117.536 42.2715 117.585 42.3244C117.483 42.3735 117.483 42.4755 117.483 42.5246C117.332 42.8796 117.483 43.1326 117.634 43.3857C117.736 43.3857 117.838 43.3857 117.94 43.3857C117.989 43.3857 118.042 43.3857 118.091 43.3857C118.193 43.3857 118.242 43.3857 118.344 43.3857C118.393 43.3857 118.393 43.3857 118.446 43.3857H118.495C118.548 43.3366 118.699 43.2346 118.801 43.2346C118.903 43.2346 118.952 43.1817 119.054 43.0835C119.103 43.0307 119.103 43.0307 119.156 43.0307L119.307 42.7285L119.409 42.8796C119.56 42.6756 119.711 42.5774 119.862 42.5246C120.014 42.4755 120.116 42.4226 120.218 42.2224C120.319 42.2224 120.471 42.1205 120.471 42.0714C120.622 41.9694 120.826 41.7654 121.128 41.6144C121.128 41.6144 121.128 41.6144 121.181 41.5653L121.483 41.2103L121.634 41.2593C121.687 41.2103 121.687 41.1574 121.838 41.1083C121.838 41.0592 122.038 40.9572 122.038 40.8061C122.038 40.7533 122.038 40.7042 122.091 40.6513C122.193 40.6513 122.291 40.6022 122.393 40.5531C122.544 40.4511 122.646 40.3 122.748 40.1981C122.797 40.1452 122.899 40.0961 122.952 40.0961C123.001 40.0961 122.952 40.047 123.05 39.9941C123.05 39.945 123.05 39.945 123.103 39.945C123.152 39.8922 123.254 39.7902 123.303 39.7411C123.405 39.692 123.507 39.59 123.507 39.5371C123.556 39.488 123.658 39.4389 123.658 39.3861C123.711 39.3861 123.76 39.337 123.862 39.2841L123.964 39.1859C124.013 39.133 124.315 38.8309 124.47 38.6269L124.821 38.4268L125.176 38.0717C125.229 38.0717 125.278 38.0189 125.278 37.9207L125.735 37.6147C125.785 37.4637 125.988 37.3126 126.241 37.1615C126.241 37.1087 126.291 37.1087 126.343 37.0596C126.393 37.2106 126.291 37.2106 126.241 37.2597L126.291 37.3617V37.4146C126.241 37.4146 126.241 37.4637 126.241 37.5128C126.14 37.6147 126.09 37.7658 126.038 37.8678C126.038 37.9207 125.988 37.9698 125.988 38.0717C125.837 38.3248 125.785 38.5778 125.584 38.8309C125.482 38.9819 125.482 39.1859 125.38 39.2841C125.331 39.4389 125.278 39.6391 125.176 39.7902C125.127 39.8922 125.127 39.9941 125.078 40.1452C125.025 40.1981 125.025 40.2472 124.923 40.3491C124.923 40.5002 124.874 40.6513 124.923 40.7533C124.874 40.8552 124.874 41.0063 124.874 41.1083C124.874 41.1083 124.821 41.1083 124.772 41.1574C124.772 41.2103 124.772 41.2103 124.772 41.2103C124.821 41.2593 124.821 41.2593 124.821 41.2593C124.821 41.3122 124.821 41.3122 124.821 41.3122V41.3613L124.723 41.4104C124.723 41.8674 124.723 42.2715 124.821 42.6265C124.821 42.6756 124.874 42.6756 124.874 42.6756C124.923 42.9287 125.127 43.0835 125.331 43.2346H125.482L125.683 43.3366C125.683 43.2837 125.785 43.2837 125.785 43.2837C125.837 43.2837 125.936 43.2837 126.038 43.3366H126.09C126.14 43.3857 126.241 43.3857 126.241 43.3857C126.241 43.3857 126.291 43.3857 126.343 43.3857C126.393 43.3857 126.442 43.3366 126.495 43.3366C126.597 43.2837 126.695 43.2346 126.797 43.2346C126.85 43.2346 126.85 43.2346 126.85 43.2346H126.899C126.948 43.2346 126.948 43.2346 126.948 43.2346C126.948 43.2346 127.05 43.2346 127.103 43.2346C127.152 43.1817 127.356 43.1326 127.454 43.0835H127.507C127.507 43.0835 127.507 43.0835 127.609 43.1326L127.658 43.0307H127.76C127.862 42.9287 127.911 42.9287 128.013 42.8796C128.062 42.8796 128.164 42.8796 128.213 42.7776L128.368 42.8305C128.417 42.8305 128.417 42.7776 128.417 42.7776C128.519 42.7285 128.568 42.6756 128.621 42.6756C128.772 42.6756 128.821 42.6265 128.923 42.5246H128.972C129.025 42.4755 129.127 42.4226 129.278 42.3735C129.429 42.3244 129.478 42.2224 129.633 42.1205C129.633 42.0714 129.731 42.0185 129.784 42.0185H129.833C129.886 42.0185 129.886 42.0185 129.886 42.0185C129.935 41.9694 129.935 41.9694 129.984 41.9694C130.237 41.8183 130.392 41.7163 130.592 41.5653C130.796 41.5653 130.947 41.4633 130.996 41.3122L131.2 41.3613V41.1083H131.25L131.302 41.0592C131.707 41.0063 131.858 40.8552 132.111 40.6513L131.96 40.5002H131.858H131.808C131.808 40.5002 131.808 40.5531 131.759 40.5531C131.759 40.6022 131.759 40.6022 131.759 40.6513H131.707C131.506 40.6513 131.25 40.7042 131.049 41.0063L130.947 40.9043L130.743 41.1083L130.339 41.2103L130.237 41.3122L130.188 41.2593C130.139 41.4104 130.037 41.4104 129.984 41.4633C129.833 41.4633 129.633 41.5653 129.478 41.6144C129.429 41.6635 129.38 41.6635 129.327 41.7163C129.278 41.7654 129.127 41.7654 129.074 41.8183C128.972 41.9165 128.821 41.9694 128.719 42.0185L128.568 41.9694C128.519 42.1205 128.368 42.1205 128.213 42.1696C128.115 42.1696 128.062 42.2224 128.062 42.3244L127.862 42.1696C127.76 42.3244 127.609 42.3735 127.507 42.4755C127.356 42.4755 127.303 42.4755 127.201 42.4755H126.646L126.597 42.3244C126.495 42.3735 126.393 42.3735 126.291 42.3735C126.14 42.3735 125.988 42.3244 125.785 42.1696L125.531 41.6144C125.584 41.5653 125.633 41.4633 125.584 41.4104C125.633 41.3613 125.633 41.3122 125.633 41.2593C125.633 41.2103 125.683 41.1083 125.683 41.0592C125.683 41.0592 125.683 41.0063 125.735 40.9572C125.683 40.8552 125.683 40.8552 125.735 40.8061C125.785 40.6513 125.785 40.5531 125.837 40.4511C125.837 40.3491 125.837 40.3 125.886 40.2472C125.837 40.1452 125.886 40.047 126.038 39.945C126.038 39.945 126.038 39.8922 126.038 39.8431C126.038 39.7411 126.09 39.692 126.189 39.59C126.241 39.4389 126.241 39.337 126.241 39.235L126.291 39.1859C126.291 39.0839 126.343 38.9819 126.442 38.8309C126.495 38.8309 126.597 38.6798 126.597 38.5778V38.525C126.646 38.4759 126.646 38.4759 126.646 38.4268C126.695 38.3248 126.695 38.2228 126.748 38.1208C126.85 38.0189 126.899 37.9207 126.948 37.7658C127.001 37.7167 127.05 37.5656 127.152 37.4637C127.152 37.4146 127.152 37.4146 127.152 37.3617C127.201 37.3617 127.201 37.3617 127.254 37.3617C127.254 37.3617 127.303 37.3617 127.303 37.2597L127.201 37.1615C127.254 37.0596 127.303 37.0067 127.303 37.0067C127.303 36.9085 127.356 36.8556 127.405 36.8556C127.507 36.7045 127.507 36.5535 127.556 36.5006L127.507 36.4515C127.507 36.3495 127.556 36.3004 127.556 36.1493C127.556 36.0965 127.507 36.0965 127.556 36.0474L127.356 35.7943C127.356 35.7415 127.303 35.7415 127.201 35.7415C127.152 35.7415 127.001 35.7415 126.899 35.7943H126.85C126.797 35.8434 126.748 35.9454 126.748 35.9454C126.597 36.0965 126.597 36.1493 126.393 36.2475C126.393 36.3004 126.241 36.4024 126.241 36.5006C126.241 36.5006 126.14 36.5006 126.09 36.5006C126.038 36.5535 125.936 36.6554 125.886 36.7045C125.785 36.7536 125.785 36.8556 125.683 36.9085C125.683 36.9085 125.683 36.9085 125.633 36.9576C125.482 37.0067 125.331 37.1087 125.331 37.2597L125.127 37.4637H124.976C124.976 37.4637 124.976 37.4637 124.923 37.5128C124.874 37.5656 124.874 37.6147 124.874 37.6676L124.772 37.7167C124.47 37.9698 124.115 38.3248 123.809 38.5778C123.76 38.6269 123.658 38.6798 123.658 38.6798C123.507 38.8309 123.356 38.88 123.205 39.0839C123.103 39.235 123.001 39.2841 122.899 39.3861L122.85 39.4389C122.748 39.488 122.748 39.5371 122.748 39.59C122.597 39.59 122.597 39.692 122.597 39.7411C122.393 39.7902 122.291 39.8922 122.14 39.945C122.14 40.1452 121.989 40.1981 121.838 40.1981C121.887 40.2472 121.838 40.2472 121.838 40.2472C121.687 40.3491 121.532 40.5002 121.483 40.6022C121.434 40.6513 121.381 40.6513 121.279 40.6513C121.23 40.7533 121.128 40.8552 121.026 40.9043C120.875 41.0063 120.773 41.0592 120.724 41.1083C120.674 41.1574 120.573 41.2103 120.52 41.2103C120.52 41.2103 120.52 41.2103 120.573 41.2593H120.52C120.369 41.3122 120.319 41.3613 120.267 41.4104C120.218 41.4104 120.218 41.4633 120.168 41.5124C120.014 41.5653 119.964 41.5653 119.915 41.5653C119.862 41.6144 119.813 41.6144 119.761 41.6635C119.711 41.6635 119.662 41.7163 119.662 41.7654C119.56 41.8674 119.409 41.9694 119.307 42.0185C119.254 42.0185 119.156 42.0714 119.103 42.1205C119.103 42.1205 119.103 42.1205 119.054 42.1205C119.054 42.1205 119.054 42.1205 119.001 42.1205C118.952 42.1205 118.801 42.1696 118.748 42.2224C118.699 42.2715 118.597 42.2715 118.597 42.3244L118.548 41.9694C118.548 41.8674 118.646 41.7654 118.699 41.6635C118.903 41.4104 119.001 41.1574 119.156 40.9043C119.254 40.7533 119.356 40.6022 119.458 40.4511C119.507 40.3982 119.56 40.3 119.662 40.2472L119.609 40.1981V40.1452C119.662 40.1452 119.662 40.047 119.761 39.945C119.862 39.8922 119.862 39.7411 120.014 39.7411C119.964 39.59 120.014 39.5371 120.116 39.4389C120.168 39.3861 120.218 39.3861 120.168 39.337C120.369 39.235 120.52 39.031 120.674 38.8309C120.674 38.8309 120.773 38.7289 120.773 38.6798C120.928 38.4759 120.977 38.3739 120.928 38.2719L120.977 38.2228C121.026 38.2228 121.079 38.1737 121.128 38.1737C121.128 38.1208 121.181 38.1208 121.23 38.0189C121.332 37.9207 121.434 37.8187 121.483 37.7167L121.532 37.6147C121.532 37.6147 121.532 37.5656 121.585 37.5656C121.687 37.5128 121.687 37.4637 121.687 37.4146C121.687 37.2597 121.785 37.2106 121.887 37.1615L122.038 37.0067C122.038 36.9085 122.14 36.7536 122.193 36.6554C122.242 36.5535 122.291 36.5535 122.393 36.5006V36.4515C122.495 36.3004 122.495 36.0965 122.544 35.9454V35.8963H122.393L122.242 35.7943H121.94C121.887 35.8434 121.838 35.8434 121.838 35.8963C121.785 35.9454 121.736 35.9454 121.687 36.0474C121.687 36.0474 121.585 36.0965 121.532 36.0965C121.532 36.0965 121.483 36.0965 121.483 36.1493C121.381 36.1984 121.381 36.2475 121.332 36.3004C121.23 36.3495 121.128 36.4515 121.079 36.5535C120.977 36.5535 120.928 36.6026 120.875 36.6554C120.773 36.7045 120.724 36.7536 120.674 36.8556C120.573 36.8556 120.421 36.9576 120.369 37.0067C120.319 37.0067 120.267 37.1087 120.218 37.1087C120.014 37.2106 119.862 37.3617 119.761 37.4637C119.711 37.5128 119.662 37.5656 119.56 37.5656C119.56 37.5656 119.56 37.6147 119.507 37.6147L119.458 37.5656L119.356 37.6676L119.205 37.7658L119.054 37.9698L118.952 37.9207C118.952 37.8678 118.952 37.8187 119.001 37.8187C119.103 37.7658 119.103 37.7167 119.156 37.6147C119.307 37.4637 119.409 37.3617 119.507 37.2106C119.609 37.1615 119.662 37.0596 119.761 37.0067C119.813 36.9085 119.862 36.8556 119.862 36.7536C119.915 36.7536 119.964 36.7045 119.964 36.6554H120.014L119.915 36.5006V36.3495L119.458 36.3004L119.054 36.5535C119.001 36.5535 119.001 36.5535 118.952 36.6026C118.952 36.6554 118.952 36.7045 118.903 36.7536C118.748 37.0067 118.495 37.1615 118.344 37.3126C118.344 37.4146 118.242 37.4146 118.193 37.4637C118.042 37.5656 117.989 37.6676 117.838 37.8187C117.789 37.9207 117.687 37.9698 117.634 38.0717C117.483 38.1737 117.283 38.3248 117.23 38.525C117.181 38.5778 117.181 38.5778 117.128 38.5778C117.128 38.6269 117.03 38.6798 117.03 38.6798C116.977 38.778 116.928 38.8309 116.875 38.8309C116.777 38.88 116.675 39.031 116.622 39.1859V39.235C116.573 39.2841 116.422 39.3861 116.32 39.59C116.218 39.6391 116.218 39.7411 116.116 39.7411C116.116 39.7411 116.067 39.7411 116.067 39.7902H116.018C116.018 39.8431 116.018 39.8431 116.018 39.8431L115.965 39.8922C115.814 40.047 115.765 40.1452 115.663 40.2472C115.61 40.3 115.561 40.3 115.561 40.3491C115.459 40.5002 115.308 40.6513 115.308 40.8061C115.206 40.8552 115.157 40.8552 115.157 40.9043C115.055 41.0063 114.953 41.0592 114.904 41.1083C114.851 41.2103 114.752 41.2593 114.598 41.4104C114.549 41.4633 114.447 41.5653 114.397 41.6144C114.397 41.6635 114.345 41.7163 114.295 41.7163C114.246 41.7654 114.246 41.7654 114.194 41.7654L114.144 41.8674C113.993 41.9694 113.839 42.0714 113.74 42.2224C113.638 42.3244 113.585 42.3735 113.487 42.4755C113.487 42.4755 113.487 42.5246 113.434 42.5774C113.332 42.8796 113.283 43.0835 113.487 43.3366C113.487 43.3366 113.487 43.3366 113.487 43.3857H113.536ZM132.364 40.5531L132.568 40.3982L132.364 40.3L132.164 40.5002C132.164 40.5531 132.213 40.5531 132.265 40.5531C132.265 40.5531 132.315 40.5531 132.364 40.5531Z" fill="#161128"/>
</svg>
