<svg width="78" height="49" viewBox="0 0 78 49" fill="none" xmlns="http://www.w3.org/2000/svg">
<path d="M37.657 20.9722L33.707 24.9222C33.5184 25.1044 33.2658 25.2052 33.0036 25.2029C32.7414 25.2006 32.4906 25.0955 32.3052 24.91C32.1198 24.7246 32.0146 24.4738 32.0123 24.2116C32.01 23.9494 32.1108 23.6968 32.293 23.5082L37.95 17.8512C38.0426 17.758 38.1528 17.6841 38.2741 17.6336C38.3955 17.5832 38.5256 17.5572 38.657 17.5572C38.7884 17.5572 38.9185 17.5832 39.0398 17.6336C39.1612 17.6841 39.2713 17.758 39.364 17.8512L45.021 23.5082C45.1165 23.6005 45.1927 23.7108 45.2451 23.8328C45.2975 23.9548 45.3251 24.086 45.3262 24.2188C45.3274 24.3516 45.3021 24.4833 45.2518 24.6062C45.2015 24.7291 45.1273 24.8407 45.0334 24.9346C44.9395 25.0285 44.8278 25.1028 44.7049 25.153C44.582 25.2033 44.4504 25.2286 44.3176 25.2275C44.1848 25.2263 44.0536 25.1987 43.9316 25.1463C43.8096 25.0939 43.6992 25.0177 43.607 24.9222L39.657 20.9722V30.5582C39.657 30.8234 39.5516 31.0778 39.3641 31.2653C39.1766 31.4529 38.9222 31.5582 38.657 31.5582C38.3918 31.5582 38.1374 31.4529 37.9499 31.2653C37.7623 31.0778 37.657 30.8234 37.657 30.5582V20.9722Z" fill="#FBFDFB"/>
<rect x="15.75" y="1.30823" width="46.5" height="46.5" rx="23.25" stroke="#FBFDFB" stroke-width="1.5"/>
</svg>
