<svg width="36" height="37" viewBox="0 0 36 37" fill="none" xmlns="http://www.w3.org/2000/svg">
<path d="M11.6777 10.4394C11.6774 11.0458 11.4362 11.6273 11.0072 12.0559C10.5782 12.4845 9.99644 12.7251 9.39001 12.7248C8.78358 12.7245 8.20211 12.4833 7.77352 12.0543C7.34492 11.6253 7.10431 11.0436 7.10461 10.4371C7.10492 9.8307 7.34611 9.24923 7.77513 8.82064C8.20416 8.39204 8.78587 8.15143 9.3923 8.15173C9.99873 8.15204 10.5802 8.39323 11.0088 8.82225C11.4374 9.25128 11.678 9.83299 11.6777 10.4394ZM11.7463 14.418H7.17321V28.7317H11.7463V14.418ZM18.9718 14.418H14.4215V28.7317H18.926V21.2205C18.926 17.0361 24.3794 16.6474 24.3794 21.2205V28.7317H28.8953V19.6656C28.8953 12.6116 20.8239 12.8746 18.926 16.3387L18.9718 14.418Z" fill="#FBFDFB"/>
</svg>
