<?xml version="1.0" standalone="no"?>
<!DOCTYPE svg PUBLIC "-//W3C//DTD SVG 20010904//EN"
 "http://www.w3.org/TR/2001/REC-SVG-20010904/DTD/svg10.dtd">
<svg version="1.0" xmlns="http://www.w3.org/2000/svg"
 width="528.000000pt" height="528.000000pt" viewBox="0 0 528.000000 528.000000"
 preserveAspectRatio="xMidYMid meet">
<metadata>
Created by potrace 1.14, written by Peter Selinger 2001-2017
</metadata>
<g transform="translate(0.000000,528.000000) scale(0.100000,-0.100000)"
fill="#000000" stroke="none">
<path d="M334 4961 c-2 -2 -4 -643 -4 -1423 l0 -1418 23 0 c173 -4 1948 1
1992 5 349 30 625 246 707 554 36 136 28 346 -19 491 -47 147 -163 278 -305
348 -72 35 -112 51 -140 58 -5 1 -10 3 -13 4 -7 3 -22 7 -37 9 -17 2 21 31 39
31 45 0 234 117 278 172 118 149 150 256 150 488 -1 99 -5 126 -29 195 -41
119 -124 235 -230 322 -71 59 -250 138 -334 149 -20 2 -49 7 -66 11 -34 7
-2005 11 -2012 4z m1599 -632 c52 -14 112 -71 133 -124 15 -40 21 -137 12
-175 -19 -73 -48 -113 -107 -148 l-44 -26 -339 -1 c-186 0 -339 2 -339 5 -4
14 -5 466 -2 473 6 11 642 8 686 -4z m102 -1083 c84 -54 113 -114 111 -226 -1
-102 -27 -157 -94 -205 l-44 -30 -381 -2 -382 -3 1 233 c1 127 2 238 3 245 1
10 75 12 379 10 352 -3 380 -4 407 -22z"/>
<path d="M3724 4955 c-4 -14 -46 -168 -49 -180 -6 -30 -19 -75 -31 -112 -7
-23 -15 -52 -18 -65 -5 -31 -34 -142 -51 -198 -7 -25 -16 -56 -19 -70 l-5 -26
-158 1 c-87 1 -164 -1 -170 -3 -10 -3 -13 -68 -13 -281 l0 -276 145 0 c80 1
149 -1 153 -4 4 -4 8 -262 8 -576 1 -630 3 -675 44 -771 10 -23 15 -47 10 -54
-9 -15 -110 -127 -160 -179 -20 -20 -62 -67 -95 -106 -67 -78 -115 -123 -154
-145 -14 -8 -30 -20 -36 -26 -13 -15 -125 -88 -150 -99 -11 -4 -24 -7 -30 -6
-5 1 -15 -5 -21 -14 -7 -9 -18 -18 -26 -20 -38 -9 -58 -18 -58 -27 0 -6 -7 -5
-15 2 -10 8 -15 9 -15 2 0 -6 -12 -17 -27 -24 -16 -7 -28 -20 -29 -28 -1 -35
37 -81 64 -77 25 4 111 57 121 74 6 11 10 12 15 4 4 -6 -10 -28 -31 -50 -21
-21 -51 -55 -68 -76 -16 -21 -36 -44 -42 -51 -7 -7 -13 -16 -13 -21 0 -5 -9
-16 -20 -26 -11 -9 -36 -39 -56 -67 -20 -27 -40 -50 -45 -50 -5 0 -15 -11 -21
-25 -6 -14 -17 -25 -25 -25 -7 0 -13 -4 -13 -8 0 -15 -48 -33 -53 -19 -2 7
-28 -4 -68 -29 -68 -43 -212 -114 -229 -114 -6 0 -29 -9 -52 -21 -22 -11 -50
-22 -62 -23 -11 -1 -31 -8 -43 -14 -12 -7 -28 -12 -36 -12 -8 0 -17 -6 -20
-13 -4 -11 -113 -43 -182 -53 -41 -7 -55 -10 -60 -16 -6 -6 -73 6 -81 15 -5 4
32 82 48 102 42 51 98 132 98 142 0 7 9 17 20 23 11 6 53 43 93 83 41 40 93
90 118 112 24 23 58 58 76 78 17 20 35 37 40 37 5 0 19 14 32 30 12 17 25 28
30 26 4 -3 14 4 21 15 8 10 20 19 28 19 7 0 15 6 18 14 3 8 15 17 27 20 23 6
73 66 71 85 -1 6 -2 25 -2 41 -2 26 -6 30 -32 30 -16 0 -37 -8 -47 -19 -10
-10 -27 -23 -38 -29 -12 -6 -27 -23 -35 -39 -24 -47 -64 -93 -80 -93 -26 0
-390 -368 -450 -454 -8 -12 -20 -27 -27 -34 -27 -28 -75 -105 -98 -156 -18
-41 -22 -61 -16 -83 15 -49 23 -63 32 -57 5 3 23 1 41 -4 32 -8 97 4 114 20 4
5 29 8 55 8 33 0 49 5 53 16 3 8 10 12 16 9 11 -7 112 26 170 55 19 10 38 18
43 19 4 0 24 8 44 16 20 9 47 18 60 21 13 4 37 19 54 34 17 17 38 27 49 25 10
-2 56 19 101 46 56 33 76 42 63 26 -32 -38 -85 -87 -95 -87 -5 0 -9 -5 -9 -12
0 -6 -3 -9 -6 -5 -11 10 -65 -23 -58 -35 5 -7 2 -9 -9 -5 -11 4 -18 -1 -23
-16 -4 -12 -25 -39 -47 -59 -34 -32 -38 -41 -33 -65 4 -15 15 -36 25 -46 23
-24 80 -26 93 -3 5 9 13 14 17 11 5 -2 14 2 21 10 8 10 9 15 2 15 -6 0 0 12
13 26 14 15 25 31 25 36 0 5 4 7 9 4 4 -3 16 3 26 14 10 11 23 20 29 20 6 0
38 23 71 50 33 28 64 50 70 50 15 1 111 64 112 74 1 6 21 19 45 31 60 29 152
79 158 86 3 3 28 13 55 23 28 10 64 26 81 36 38 21 91 33 169 35 70 3 81 0 83
-23 5 -42 1 -59 -23 -116 -26 -62 -67 -102 -113 -111 -57 -11 -245 -82 -309
-116 -40 -22 -76 -39 -80 -40 -10 0 -156 -74 -203 -103 -19 -11 -37 -20 -40
-19 -5 1 -111 -61 -207 -123 -29 -19 -57 -34 -63 -34 -5 0 -10 -4 -10 -10 0
-5 -7 -10 -15 -10 -8 0 -15 -4 -15 -10 0 -5 -6 -10 -14 -10 -7 0 -22 -12 -32
-26 -10 -15 -29 -39 -42 -55 -15 -19 -25 -47 -29 -81 -4 -45 -2 -57 16 -76 12
-12 29 -23 39 -23 9 -1 24 -2 32 -3 8 -1 22 4 30 10 8 6 38 19 65 29 28 10 57
24 65 31 8 7 18 13 23 13 18 1 117 53 117 62 0 6 5 7 10 4 6 -3 10 -1 10 5 0
7 6 10 14 7 8 -3 22 3 31 13 10 11 26 22 37 26 26 8 110 64 125 84 7 8 13 12
13 8 0 -3 14 7 31 23 17 16 36 29 42 29 26 0 117 66 128 92 6 16 17 28 23 27
24 -3 35 2 64 29 16 15 46 41 67 57 20 17 62 54 92 83 30 28 58 52 62 52 13 0
111 102 111 115 0 8 8 19 18 24 9 6 14 11 9 11 -4 0 0 11 8 24 17 26 22 83 10
134 -13 60 -119 95 -240 79 -47 -6 -146 -39 -190 -63 -22 -12 -55 -25 -72 -29
-18 -3 -36 -11 -39 -17 -7 -11 -75 -43 -86 -40 -5 1 -8 -2 -8 -6 0 -9 -69 -36
-75 -30 -4 4 62 106 82 126 7 8 11 17 8 22 -5 8 23 25 37 22 3 -1 11 11 16 27
5 15 37 54 70 87 32 32 72 78 87 101 15 23 38 49 51 58 13 8 24 22 24 30 0 8
6 15 14 15 7 0 26 17 42 38 46 61 173 181 255 242 18 14 41 33 51 43 10 9 22
17 26 17 9 0 43 32 111 104 44 46 64 52 104 27 89 -55 213 -99 332 -118 97
-15 444 -8 535 12 14 3 43 8 65 10 22 3 48 8 57 11 9 3 25 7 35 9 10 2 29 8
43 13 l25 10 -2 233 c0 129 -2 237 -2 241 -1 4 -64 7 -141 7 -77 0 -150 2
-162 6 -65 18 -98 42 -123 87 -14 26 -25 50 -25 53 1 3 -1 23 -5 45 -7 43 13
90 39 90 7 0 18 11 24 25 6 14 18 25 27 25 8 0 15 4 15 8 0 8 50 68 118 141
23 25 45 56 48 69 3 12 9 22 13 22 14 0 122 151 119 168 -2 9 5 25 14 34 20
20 22 36 9 57 -16 25 -60 15 -99 -22 -20 -19 -56 -53 -80 -74 -23 -21 -80 -74
-126 -118 -45 -44 -94 -90 -107 -102 l-24 -22 2 306 c1 167 4 308 8 311 4 4
108 7 233 7 l226 0 0 269 c1 179 -3 273 -10 280 -7 7 -87 11 -232 10 -218 0
-222 0 -223 20 0 12 -1 160 -2 331 l-2 310 -304 0 c-197 0 -305 -3 -307 -10z
m790 -1790 c-14 -19 -30 -35 -35 -35 -5 0 -9 -6 -9 -12 -1 -7 -21 -33 -45 -58
-25 -25 -45 -51 -45 -57 0 -7 -2 -13 -4 -13 -2 0 -11 -3 -20 -6 -12 -4 -16 0
-16 15 0 12 5 21 10 21 6 0 10 7 10 15 0 8 5 15 10 15 13 0 80 68 80 81 0 5 6
9 14 9 8 0 23 14 33 30 9 17 23 30 31 30 8 0 4 -12 -14 -35z m-1784 -1944 c0
-14 -18 -23 -30 -16 -6 4 -8 11 -5 16 8 12 35 12 35 0z m390 -241 c0 -5 -5
-10 -11 -10 -5 0 -7 5 -4 10 3 6 8 10 11 10 2 0 4 -4 4 -10z m-30 -21 c0 -4
-13 -16 -30 -26 -16 -9 -30 -21 -30 -25 0 -4 -4 -8 -10 -8 -5 0 -18 -8 -28
-17 -29 -27 -103 -87 -121 -97 -9 -5 -18 -13 -21 -16 -3 -4 -14 -9 -25 -11
-11 -2 -24 -14 -30 -27 -9 -19 -18 -24 -41 -21 -4 0 -10 -3 -13 -8 -9 -14
-106 -78 -108 -73 -2 3 -16 -7 -31 -21 -15 -15 -68 -46 -117 -69 -50 -23 -111
-52 -136 -64 -47 -23 -90 -27 -96 -9 -4 12 42 63 57 63 5 0 10 7 10 15 0 8 7
15 15 15 8 0 15 4 15 10 0 5 14 17 32 26 18 9 41 28 51 41 11 13 25 22 31 20
7 -3 23 6 36 20 12 13 50 38 84 54 34 17 69 37 78 46 9 8 22 12 27 8 6 -3 11
-2 11 4 0 5 10 13 22 17 13 4 28 14 34 22 6 8 22 17 35 19 13 2 38 12 57 23
18 11 39 20 46 20 7 0 21 9 31 20 10 11 26 20 37 20 10 0 18 5 18 10 0 6 8 10
18 10 9 0 28 6 42 13 25 14 50 12 50 -4z"/>
<path d="M2849 2221 c-23 -19 -23 -21 -9 -48 14 -24 22 -28 60 -28 44 0 45 1
48 33 6 57 -52 82 -99 43z"/>
</g>
</svg>
